<svg id="Layer_1" data-name="Layer 1" xmlns="http://www.w3.org/2000/svg" viewBox="0 0 1080 1080"><defs><style>.cls-1{fill:#f2f2f2;}.cls-2{fill:#eceded;}.cls-3{fill:#090908;}.cls-4{fill:#0a0a09;}.cls-5{fill:#d1d1d1;}.cls-6{fill:#cfd0d0;}.cls-7{fill:#c9caca;}.cls-8{fill:#afb1b1;}.cls-9{fill:#b6b6b6;}.cls-10{fill:#cecfcf;}.cls-11{fill:#cacbcb;}.cls-12{fill:#c8c9c9;}.cls-13{fill:#d6d6d6;}.cls-14{fill:#d2d2d3;}.cls-15{fill:#c3c3c3;}.cls-16{fill:#c4c4c4;}.cls-17{fill:#d5d5d6;}.cls-18{fill:#b6b7b7;}.cls-19{fill:#b7b8b8;}.cls-20{fill:#d1d1d2;}.cls-21{fill:#d2d2d2;}.cls-22{fill:#cbcbcb;}.cls-23{fill:#c5c7c7;}.cls-24{fill:#c1c2c1;}.cls-25{fill:#c5c6c6;}.cls-26{fill:#c6c6c6;}.cls-27{fill:#bdbdbd;}.cls-28{fill:#d0d0d1;}.cls-29{fill:#bebebe;}.cls-30{fill:#c7c8c8;}.cls-31{fill:#bcbcbc;}.cls-32{fill:#b0b2b2;}.cls-33{fill:#bfbfbf;}.cls-34{fill:#b0b1b1;}.cls-35{fill:#c9c9ca;}.cls-36{fill:#c1c2c2;}.cls-37{fill:#c8c8c8;}.cls-38{fill:#c6c7c7;}.cls-39{fill:#c7c7c7;}.cls-40{fill:#c2c2c2;}.cls-41{fill:#cacacb;}.cls-42{fill:#c5c5c5;}.cls-43{fill:#c4c5c5;}.cls-44{fill:#c2c3c3;}.cls-45{fill:#c6c6c7;}.cls-46{fill:#c9c9c9;}.cls-47{fill:#bebfbf;}.cls-48{fill:#d1d2d2;}.cls-49{fill:#c5c5c6;}.cls-50{fill:#c7c7c8;}.cls-51{fill:#2b2b2a;}.cls-52{fill:#242423;}.cls-53{fill:#292928;}.cls-54{fill:#2d2d2c;}.cls-55{fill:#c3c4c4;}.cls-56{fill:#c4c4c5;}.cls-57{fill:#bcbdbd;}.cls-58{fill:#bebebf;}.cls-59{fill:#585857;}.cls-60{fill:#434343;}.cls-61{fill:#c2c2c3;}.cls-62{fill:#272726;}.cls-63{fill:#121211;}.cls-64{fill:#8f908f;}.cls-65{fill:#bdbdbe;}.cls-66{fill:#bdbfbf;}.cls-67{fill:#999a99;}.cls-68{fill:#080808;}.cls-69{fill:#ebca5b;}.cls-70{fill:#c3a26e;}.cls-71{fill:#fefefe;}.cls-72{fill:#d0d0d0;}.cls-73{fill:#c4c6c6;}.cls-74{fill:#b3b4b4;}.cls-75{fill:#939393;}</style></defs><circle class="cls-1" cx="540" cy="540" r="540"/><path class="cls-2" d="M298.69,401.3c.06-.14.13-.27.19-.41.43-.87.15-2.32,1-2.62s1.87.39,2.82.63l3.73.91c3.45-.74,5.55-3.13,7.17-6a16.42,16.42,0,0,0,2-8,3.27,3.27,0,0,0-1-2.52c-1.25-1.2-2.6-2.28-3.92-3.41s-1.31-1.5-.33-2.72c3.42-4.24,6.69-8.62,10.78-12.26a5.22,5.22,0,0,1,.92-.77,4.41,4.41,0,0,0-.86.69,4.79,4.79,0,0,1-2.23,1.46c-.76-.45-.07-.75.16-1,1.23-1.26,2.43-2.54,3.75-3.7l.57-.49c.66-.47,1.19-1.08,1.82-1.6l.23-.22a6.51,6.51,0,0,0,1.26-1l.23-.22a12.47,12.47,0,0,0,1.25-.91h0c.43-.26.79-.62,1.2-.9h0c.45-.26.8-.65,1.25-.91l.83-.52a23,23,0,0,1,2.73-1.85l.82-.59a15.86,15.86,0,0,0,1.54-.9h0c.48-.35,1.06-.54,1.54-.9l.53-.22c2.51-1.49,5.16-2.69,7.78-4h0a91.48,91.48,0,0,1,13.94-4.72c1.66-.41,3.37-.63,5-1.13a1.39,1.39,0,0,1,1.91.78,21.25,21.25,0,0,0,2.89-.65c1.25-.46,1.56.11,1.75,1.17.25,1.46.6,2.9.94,4.34.65,2.77,2.1,4,5,4.38.3,0,.59,0,.78.33a17.48,17.48,0,0,0,5.45,0,31.3,31.3,0,0,0,4-1.09,5.63,5.63,0,0,0,2.88-2.17c.51-.37.28-1,.52-1.45.4-1.55.8-3.1,1.19-4.65.19-.73.37-1.38,1.37-.93a1.18,1.18,0,0,0,1.25-.23c1.28-.1,2.45.5,3.71.56a90.59,90.59,0,0,1,15.44,4.82h0c.69.31,1.39.62,2.1.9h0c2.24,1,4.44,2.15,6.63,3.29l.51.29a17.09,17.09,0,0,0,1.56.9A85.16,85.16,0,0,1,446,367.86c2.53,2.84,4.86,5.85,7.31,8.76.6.7.3,1.13-.26,1.6-1.21,1-2.35,2.12-3.63,3-2,1.45-1.93,3.54-1.61,5.52a16.55,16.55,0,0,0,4.87,9.78c1.92,1.81,4,2.87,6.68,1.66,1.25-.56,2.67-.73,4-1.18.81-.29,1,0,1.18.71a119.3,119.3,0,0,1,4.3,16.93,56.7,56.7,0,0,1,1,10.16c0,1.53.36,3,.32,4.58a101.43,101.43,0,0,1-4,26.7c-.31,1-.62,2.09-.83,3.15-.27,1.33-.89,1.91-2.26,1.31a5.44,5.44,0,0,0-1-.26,3.06,3.06,0,0,1-2.54-.36c-2.12-.86-3.8-.18-5.38,1.25a26,26,0,0,0-3.24,3.8,2,2,0,0,0-1,1.38,17.77,17.77,0,0,0-1.46,7.05,3.71,3.71,0,0,0,1.56,3c1.49,1.13,2.86,2.42,4.3,3.62.4.34.36.61.06,1-2.12,2.6-4.19,5.24-6.34,7.8-1.91,2.26-3.91,4.44-5.87,6.66a19.06,19.06,0,0,0-2.67,2.33,81.28,81.28,0,0,1-15.31,10.78c-9.2,5.2-19.15,8.16-29.47,10.05-1.81.33-2,.16-2.47-1.62-.37-1.54-.68-3.1-1-4.66a3.79,3.79,0,0,0-2.2-2.82,15.46,15.46,0,0,0-13.27-.09,3.5,3.5,0,0,0-2.32,2.71,1.19,1.19,0,0,1-.68,1.07c-.32,1.53-.64,3.06-.93,4.59-.11.56-.35.78-.91.58a.68.68,0,0,0-.14,0c-1.8-.68-3.67-.26-5.5-.31-1.73-1.09-3.77-1.2-5.67-1.72a89.15,89.15,0,0,1-34.66-18.53,111.47,111.47,0,0,1-13.57-14.58c-1.15-1.42-1.11-2,.27-3.11,1.1-.93,2.12-1.95,3.26-2.83a3.14,3.14,0,0,0,1.36-2.52A15.46,15.46,0,0,0,310.39,462a4.4,4.4,0,0,0-4.57-.93c-1.4.49-2.84.9-4.28,1.28s-1.73.17-2.17-1.23a108.26,108.26,0,0,1-4.86-21.46,39.13,39.13,0,0,1-.4-5.93c.09-2-.23-4-.26-5.94a65,65,0,0,1,1.39-14c.44-2.14.83-4.29,1.45-6.39a1.93,1.93,0,0,0-.49-2.17,12.13,12.13,0,0,1,.82-3.51C297.36,400.48,298.25,401.87,298.69,401.3Z"/><path class="cls-2" d="M443.59,563.4c-.41-1,.44-.59.73-.6,1.81,0,3.62,0,5.57,0l-.6-1.73a7.87,7.87,0,0,1-1.56-2.53c.27-.56.78-.31,1.18-.31h45.9a2.22,2.22,0,0,1,1,.06c.4.23.14.48-.1.67a10.4,10.4,0,0,1-1.48,2.64,21.06,21.06,0,0,1-1.55,2.34,21.09,21.09,0,0,0-2.79,9.22q0,73.17,0,146.32a3.83,3.83,0,0,0,.15,1.9v0c.28.43.09.91.15,1.37a17.89,17.89,0,0,0,3.2,7.59l1.12,1.74c.46.83,1,1.63,1.5,2.43h0c0,.67-.56.44-.9.44-4.51,0-9,.32-13.52.32q-51.75-.08-103.51,0c-.9,0-1.91.31-2.66-.55-.3-1.37.85-2.15,1.3-3.21s1.06-1.8,1.58-2.7a17.82,17.82,0,0,0,2.45-9.1q0-73.08,0-146.16a19.87,19.87,0,0,0-2.44-9.11,8,8,0,0,0-1.63-3.32l-1.12-1.71c-.29-.61-.28-1.07.56-1.1.35,0,.7,0,1,0H422c.2,0,0,0,.14,0,.51.09,1.2-.29,1.48.33s-.4.85-.6,1.29-.5.61-.65,1a6,6,0,0,0-1.18,1.68,18.38,18.38,0,0,0-3.41,7.31,62.38,62.38,0,0,0-.47,10.84q0,58.85,0,117.7v1.34c0,1.66,0,1.69,1.66,1.7,4.23,0,8.45,0,12.67,0,6.76,0,13.51.13,20.27-.12,1.76-.06,1.94-.2,1.94-2q0-62.58,0-125.15a15.33,15.33,0,0,0-1-5.68c-.67-1.2-1-2.57-1.78-3.73a2.42,2.42,0,0,0-2.21-1.19A40.78,40.78,0,0,1,443.59,563.4Z"/><path class="cls-2" d="M262.92,445.46c-.91.68-2.1-.17-3,.56a2,2,0,0,0,.68,1.48l.52.84a16.67,16.67,0,0,0,.91,1.53h0a23.46,23.46,0,0,0,1.56,2.4l.52.84c.36.49.5,1.12,1,1.54l.52.84a19.09,19.09,0,0,0,1.57,2.44l1.12,1.73a17.72,17.72,0,0,0,1.56,2.44l1.72,2.62a31.72,31.72,0,0,0,2.16,3.34l9.48,14.25a10,10,0,0,0,1.19,1.88l5.95,8.83c.9,1.33,1.75,2.69,2.7,4l3,4.37c.69,1,1.37,2.08,2.11,3.08a24.16,24.16,0,0,1,2.31,3.51c.81,1,1.39,2.07,2.16,3.05a10.79,10.79,0,0,1,1.71,2.61c.59.67,1,1.46,1.57,2.15l.6.8c.16.93-.49.94-1.1.94-2.08,0-4.16.11-6.24.12q-25.72,0-51.46,0c-.85,0-1.81.29-2.49-.56a1.27,1.27,0,0,1,.15-1.25,33.74,33.74,0,0,1,2-3.31c2.23-3.12,3.1-6.71,3.63-10.43a3.18,3.18,0,0,0-.46-2.12q-13.06-22.86-26.14-45.73a17.54,17.54,0,0,1-1.45-2.74c-.11.05-.1.13-.11.25-.37,16.32-.3,32.64-.22,48.95a20.84,20.84,0,0,0,2.14,9.75,17.41,17.41,0,0,0,1.56,2.35l1.77,2.59c.24.65,1.18,1.06.68,2-15.37.54-30.75.21-46.12.27-.83,0-2.22.48-2-1.3a34.3,34.3,0,0,1,2.31-4.15,19.3,19.3,0,0,0,3.2-10.84q0-72.46,0-144.95a18,18,0,0,0-2.6-9.65,2.25,2.25,0,0,1-.5-1.52l-2.39-4c-.07-.31.07-.47.37-.49s.89,0,1.34,0h83.78c.8-.11,1.52.45,2.33.3a36.42,36.42,0,0,1,3.71,1h0a14.33,14.33,0,0,0,1.58.61l1.08.58c.82.53,1.72.92,2.5,1.51l1.1.81a37.48,37.48,0,0,1,3.59,3.65h0a8.63,8.63,0,0,0,1,1.2l.52.83a24.18,24.18,0,0,1,3.43,11.18q0,25.14,0,50.28a50,50,0,0,1-.29,8.73,22.45,22.45,0,0,1-3.12,8.55h0c-.41.59-.75,1.23-1.2,1.79h0c-.5.81-1.4,1.28-1.8,2.17l-1.08,1.39A20.71,20.71,0,0,1,265.61,441c-2.23.12-4.47,0-6.7,0-1.5,0-1.57.16-.77,1.51.17.3.38.58.53.89a2.44,2.44,0,0,0,2.6,1.56A1.71,1.71,0,0,1,262.92,445.46Z"/><path class="cls-2" d="M324.69,669.8l.52.84a20.24,20.24,0,0,0,1.57,2.44l.52.84a19.09,19.09,0,0,0,1.57,2.44l1.11,1.73a20.24,20.24,0,0,0,1.57,2.44l2.32,3.52a47.1,47.1,0,0,0,2.75,4.23l12.95,19.39c.24.36.42.76.63,1.14,1,1.24,1.78,2.67,2.76,3.94l3,4.36c.9,1.33,1.75,2.69,2.7,4l1.77,2.58c.7,1,1.37,2.08,2.11,3.08l1.77,2.58c.69,1,1.36,2.08,2.1,3.09l1.17,1.69c.51.77.41,1.13-.61,1.1-3.11-.09-6.23,0-9.34,0-16.25-.07-32.49,0-48.73,0-.86,0-1.82.27-2.53-.51-.33-.68.17-1.15.43-1.68a14.53,14.53,0,0,1,1.44-2.43,23.15,23.15,0,0,0,3.88-10.82,3.25,3.25,0,0,0-.42-2.13q-13.16-23.11-26.37-46.18a10.58,10.58,0,0,1-1.11-2.42c-.53,0-.26.41-.26.58q-.23,25.09-.11,50.21c0,.2,0,0,0,.14a22.83,22.83,0,0,0,1.45,6.78h0a4.82,4.82,0,0,0,1,1.81l2.31,3.5c.41.68.92,1.29,1.3,2,.3.53.31.92-.5.92-2.42,0-4.84.2-7.25.22-12.74.1-25.48,0-38.22,0a2.93,2.93,0,0,1-2.14-.39c-.41-.77.29-1.23.51-1.83.69-1.32,1.44-2.6,2.25-3.86a17.57,17.57,0,0,0,2.74-9.75q0-59.22,0-118.44,0-13.71,0-27.41a18,18,0,0,0-2.19-8.57c-.35-.64-.85-1.25-.63-2.07l-1.18-1.75a26.92,26.92,0,0,0-1.5-2.46h0c0-.32.16-.43.44-.44.45,0,.9,0,1.34,0h82.75a23.72,23.72,0,0,1,11.25,3.42l2,1.48a31.44,31.44,0,0,1,3.7,3.6l1.41,2c.35.51.49,1.15,1,1.56l.22.54a25.75,25.75,0,0,1,2.22,8.83v57.25a19.56,19.56,0,0,1-1.7,7.18,12,12,0,0,1-1.42,3.08h0c-.4.59-.75,1.23-1.2,1.79h0a11.19,11.19,0,0,0-.91,1.26l-.52.52c-.29.32-.57.64-.87.95s-.25.64-.53.87l-.15.24a20.84,20.84,0,0,1-14.94,5.81c-2,0-4,0-5.93,0-1.34,0-1.37.13-.73,1.34a23.23,23.23,0,0,1,1.91,3.32v.3c0,1,.85,1.57,1.2,2.38h0c.37.47.5,1.1,1,1.51l.52.84C324.08,668.75,324.22,669.38,324.69,669.8Z"/><path class="cls-2" d="M651.6,511.58l-.23.23c-.24.68-1.14.89-1.21,1.69-.19.24-.39.47-.59.71a6.14,6.14,0,0,0-1.09,1.13,7.45,7.45,0,0,1-5.86,2.69q-37.41-.07-74.81,0c-3.08,0-3.14-.15-1.75-2.85.94-1.81,2.16-3.45,3-5.29a18.57,18.57,0,0,0,1.88-8.05q0-72.78,0-145.56a18.31,18.31,0,0,0-2.49-9.38,3.11,3.11,0,0,1-.61-1.66c-.5-.43-.57-1.11-.88-1.64-.44-.86-1-1.65-1.5-2.46h0a.34.34,0,0,1,.29-.43,9.51,9.51,0,0,1,1.19,0h76.64a3.17,3.17,0,0,1,2.13.45l.81.58c.44.27.79.65,1.23.9h0c.78.51,1.32,1.31,2.1,1.83a1,1,0,0,0,.93.58,18.63,18.63,0,0,1,4.09,5.36c-.27.21,0,.39,0,.58a1.37,1.37,0,0,0,.38,1.2l.22.54A47.78,47.78,0,0,1,659,367.15a11.1,11.1,0,0,0,.14,2.15,30.61,30.61,0,0,0,.15,3.71c.1.83-.28,1.21-1.1,1.17-1.64-.08-3.27.13-4.91.13H609.89c-2.19,0-2.18.05-2.25,2.27-.21,7.24-.07,14.48-.11,21.73a5.55,5.55,0,0,0,.11,1.77c.54.55,1.22.32,1.84.32h33.8a4.11,4.11,0,0,1,2.19.29l1.68,1.19c.56.34,1,.87,1.53,1.23l2.33,2.33c.37.54.87,1,1.24,1.51h0c.64.86,1.2,1.78,1.79,2.69h0a34.22,34.22,0,0,1,1.8,3.58h0a14.25,14.25,0,0,1,.77,2.37A21.16,21.16,0,0,1,658,421c.05.37.08.69.45.87v.93c.4,3.24.47,6.5.75,9.75.19,1.1-.25,1.39-1.37,1.43-16,.57-32,.09-48,.24-2.17,0-2.23.1-2.27,2.27-.27,15,0,30.08-.11,45.12,0,.68-.21,1.4.25,2a5.27,5.27,0,0,0,1.63.09q24.75,0,49.5,0c.63.67.32,1.49.29,2.23a80.33,80.33,0,0,1-1.16,11.26c-.81,3.16-1.52,6.36-3.21,9.22a15.78,15.78,0,0,1-1.1,2.17h0c-.4.59-.75,1.23-1.2,1.79h0C652.24,510.78,651.91,511.17,651.6,511.58Z"/><path class="cls-2" d="M688.91,731.86l-.28.36a7.83,7.83,0,0,1-6.9,3.33q-36.42-.07-72.84,0c-3.38,0-3.52-.17-2.44-3.33,1.31-3.8,2.41-7.67,3.91-11.41a3.62,3.62,0,0,0,.32-1.87c0-3,.07-5.93,0-8.89-.07-2.58.46-5.11.3-7.68,0-.37,0-.7.43-.85a8.07,8.07,0,0,1,2.08-.1h44.71c1.74,0,3.47-.13,5.21-.12,1.17,0,1.57-.55,1.55-1.66,0-2.63,0-5.26,0-7.89q0-18.71,0-37.39c0-2.16-.12-2.29-2.26-2.29H613.78c-3.08,0-3.1,0-3.1-3V576a5.52,5.52,0,0,0-.2-2.21c-1.14-3.07-1.89-6.26-2.88-9.38a2.6,2.6,0,0,1,0-1.61,20.26,20.26,0,0,0-.91-3.44c-.24-.8-.14-1.26.83-1.16.3,0,.6,0,.9,0q37.07,0,74.14,0a4.45,4.45,0,0,1,2.8.76h0c.52.37,1.09.65,1.58,1.06.44.14.72.53,1.11.74h0a33.85,33.85,0,0,1,3.88,3.88h0c.34.47.66.94,1,1.43s.48.89.84,1.26h0a34.22,34.22,0,0,1,1.8,3.58h0a58.85,58.85,0,0,1,1.93,6.22,72.22,72.22,0,0,1,1.05,10.27c-.17,1.48.35,3-.31,4.45-2.72.09-5.43.38-8.16.37-13.56,0-27.12,0-40.68,0-2.16,0-2.24.14-2.31,2.26-.21,7.24-.08,14.49-.1,21.73,0,.63-.19,1.3.25,1.87a4.9,4.9,0,0,0,1.62.09h34.17a3,3,0,0,1,2.12.45h0c.42.29.77.64,1.2.9h0c.41.28.77.64,1.2.89h0a47.9,47.9,0,0,1,4.24,4.19l.23.23c.23.48.65.83.91,1.29l.58.8a14.75,14.75,0,0,0,.9,1.54h0a16.8,16.8,0,0,1,1.2,2.4h0a44,44,0,0,1,2.23,6.8,59.75,59.75,0,0,1,.74,6.54q0,30.6,0,61.2a98.18,98.18,0,0,1-1.34,9.8,44.15,44.15,0,0,1-3.77,10.69c-.46.83-1,1.6-1.44,2.43h0c-.29.41-.64.77-.9,1.2h0C690.39,730.29,689.45,730.9,688.91,731.86Z"/><path class="cls-2" d="M587.25,731.81l-.28.4A6.44,6.44,0,0,1,583,735a6.75,6.75,0,0,1-2.37.21H506.5c-1.72-.06-2.07-.49-1.54-2.11,1.15-3.59,2.36-7.16,3.57-10.73a9.72,9.72,0,0,0,.51-3.21c0-3.13,0-6.25,0-9.38-.07-2.48.47-4.93.3-7.41a.72.72,0,0,1,.44-.85,8.54,8.54,0,0,1,2.08-.09H558c1.3,0,2.58-.18,3.87-.14a1.18,1.18,0,0,0,1.38-1.35c0-.35,0-.7,0-1v-44.4c0-2.33-.09-2.42-2.45-2.42h-48c-.6,0-1.2,0-1.79,0-1.53-.08-1.94-.48-2-2,0-.65,0-1.3,0-1.94q0-36.06,0-72.11a5.68,5.68,0,0,0-.19-2.21c-1.09-3.08-1.93-6.25-2.84-9.39a2.76,2.76,0,0,1-.06-1.61,14.19,14.19,0,0,0-.9-3.44c-.29-1.07.09-1.22,1-1.15.25,0,.5,0,.74,0q37.08,0,74.14,0a4.43,4.43,0,0,1,2.8.76h0c.44.39,1,.55,1.5.9h0c.41.28.77.64,1.2.9h0a33.06,33.06,0,0,1,3.88,3.88h0c.26.44.61.79.9,1.2h0a33.69,33.69,0,0,1,2.69,5.07h0a35.79,35.79,0,0,1,1.62,5.25.84.84,0,0,0,.44.69v.66c.39,3,.81,6.07.91,9.14,0,1.29,0,2.59,0,3.87.05,1.12-.42,1.38-1.49,1.43-11.4.56-22.81.12-34.22.24-4.56.06-9.13,0-13.7,0a2.72,2.72,0,0,0-1.59.24,1.64,1.64,0,0,0-.47,1.35c-.21,7.68-.09,15.36-.11,23,0,.44-.1.91.29,1.25,2.34.14,4.67.06,7,.06h28.9a2.79,2.79,0,0,1,2,.45h0c.66.56,1.43,1,2.1,1.53l.25.25a39.84,39.84,0,0,1,4.51,4.49h0c.26.45.65.8.91,1.24l.57.8a16.84,16.84,0,0,0,.91,1.54h0a12.38,12.38,0,0,1,1.44,3.11,30.8,30.8,0,0,1,2.56,10.37c.06.68.15,1.37.17,2.06q0,30.68,0,61.34a61.49,61.49,0,0,1-3.57,17.31h0a44.76,44.76,0,0,1-2.44,4.78l-.54.83c-.25.45-.65.8-.91,1.25h0C588.74,730.27,587.84,730.9,587.25,731.81Z"/><path class="cls-2" d="M758.67,516.49a28.82,28.82,0,0,0,6.24-6.61A35.14,35.14,0,0,0,770.78,497c2.64-10.65,5.48-21.25,8.24-31.87q8.4-32.44,16.84-64.88,4.73-18.24,9.49-36.48c1.24-4.75,2.5-9.5,3.71-14.27a4.94,4.94,0,0,1,.51-1.39,8.06,8.06,0,0,0,.59-7.15c.45-.48,1-.25,1.55-.26h39.41c.74.32.4.9.28,1.37a8.93,8.93,0,0,0-.47,3c1.4,4.92,2.62,9.89,3.88,14.84a2.21,2.21,0,0,0,.23.55,35.45,35.45,0,0,0,2,6.84c0,.22,0,.44,0,.66.35,2.42,1.31,4.69,1.68,7.1.87,2.77,1.47,5.61,2.31,8.39.35,2.18,1.23,4.25,1.55,6.44.88,2.78,1.45,5.65,2.31,8.43a35.15,35.15,0,0,0,2,6.83v.66c1.17,5.19,2.6,10.33,4,15.47a34.54,34.54,0,0,0,2,6.82c0,.21,0,.43,0,.65.35,2.42,1.31,4.69,1.68,7.11.87,3,1.77,6.06,2.37,9.17,1.35,4.46,2.43,9,3.57,13.53a2.14,2.14,0,0,0,.23.54,35.45,35.45,0,0,0,2,6.84v.66c.35,2.42,1.32,4.69,1.69,7.1.86,3,1.77,6.06,2.37,9.17,1.34,4.45,2.41,9,3.56,13.48a2,2,0,0,0,.21.55,29.41,29.41,0,0,0,3.53,9.59h0a17.55,17.55,0,0,0,2.09,3h0c1.88,2.25,4.11,4.16,6.12,6.29.39.42,1,.72,1,1.38-.22.31-.54.22-.83.22-6.59,0-13.18.35-19.78.3-10.38-.08-20.76,0-31.14,0-.89,0-2,.27-2.25-1.1a8.55,8.55,0,0,1,1.31-3.6,13.73,13.73,0,0,0,1-10.13c-2.85-11.25-5.85-22.46-8.7-33.71a2.09,2.09,0,0,0-2.4-1.82c-6.15.05-12.31,0-18.46,0-2.48,0-2.48,0-3.24,2.44a4.85,4.85,0,0,1-.33.82c-1.52,2.65-1.81,5.67-2.64,8.53a43,43,0,0,0-1.25,5c-.85,2.78-1.44,5.64-2.32,8.41-.37,2.42-1.34,4.69-1.69,7.11V500c-.68,1-.6,2.19-1,3.24-.45,3.05-.63,6.07.76,9h0c.58,1.55,1.47,3,2.09,4.48v0c.27.69-.17.76-.67.75-2.13,0-4.26.24-6.37.25-14.8.07-29.6,0-44.41,0a6.36,6.36,0,0,1-1.63-.09C758.71,517.41,758.32,517.14,758.67,516.49Z"/><path class="cls-2" d="M829.9,716v.64a17.34,17.34,0,0,0,3,7.45c.39.67.78,1.34,1.18,2s.89,1,1.21,1.59l.24.23c2,2.37,4.44,4.3,6.37,6.67-.3.46-.63.34-.9.35-7.13.11-14.25.34-21.39.29-9.76-.07-19.53,0-29.29,0-.77,0-1.61.2-2.25-.48a2,2,0,0,1,.36-2c2.8-4.84,2.7-9.82,1.26-15.1-2.6-9.53-5-19.12-7.48-28.68-1.18-4.56-.53-3.78-4.84-3.81-5.57,0-11.13,0-16.69,0-2.45,0-2.53,0-3.09,2.23a2.54,2.54,0,0,1-.29.68c-1.42,2.31-1.65,5-2.38,7.53a25.11,25.11,0,0,0-1,4.29v.37a58.35,58.35,0,0,0-1.9,6.63,8.57,8.57,0,0,0-.31,1c-.86,3.87-2,7.67-2.93,11.52-.86,3.58-1.27,7.16.48,10.64l.21.54c.46,1.45,1.45,2.68,1.82,4.14a.83.83,0,0,1-.61.22c-4-.1-8,.33-12,.31-12.84-.08-25.69,0-38.53,0a7.57,7.57,0,0,1-1.78-.08c-.4-.1-1-.17-.63-.85,1.8-1.88,3.61-3.75,5.55-5.5a.76.76,0,0,1,.27-.69,8.05,8.05,0,0,1,.87-1.36c3.37-4.38,4.61-9.61,5.93-14.81,3.57-14,7.26-28,10.9-42.07q7.95-30.63,15.91-61.24,5.65-21.75,11.32-43.5a3.44,3.44,0,0,1,.88-2c.82-1.12.14-2.19-.11-3.26-.37-1.58-.38-1.61,1.21-1.61H789c1.56,0,1.77.17,1.21,1.58-1,2.51.17,4.75.7,7.07.42,1.87,1,3.71,1.44,5.58.49,2.18,1.21,4.3,1.66,6.49a.82.82,0,0,0,.43.56v.65c.35,2.42,1.32,4.69,1.69,7.11.86,3,1.77,6.06,2.37,9.17,1.35,4.46,2.42,9,3.57,13.53a2.55,2.55,0,0,0,.22.54,36,36,0,0,0,2,6.84V618c.35,2.42,1.32,4.69,1.69,7.1.86,3,1.76,6.07,2.36,9.17,1.07,3.22,1.73,6.55,2.64,9.82.4,1.41.72,2.85,1.16,4.26a36.39,36.39,0,0,0,2,6.84v.65c.35,2.42,1.32,4.69,1.68,7.1.88,2.77,1.48,5.61,2.31,8.39.36,2.19,1.23,4.25,1.55,6.44.88,2.78,1.45,5.65,2.32,8.43a34.44,34.44,0,0,0,2,6.83c0,.22,0,.44,0,.66.35,2.41,1.32,4.68,1.68,7.09.87,2.76,1.47,5.6,2.3,8.37C828.53,711.42,828.85,713.79,829.9,716Z"/><path class="cls-2" d="M744.73,510.08l.22.53a7.76,7.76,0,0,0,1,1.55l2.61,4.09c.44.71.49,1.1-.59,1.13-15.22.5-30.44.18-45.66.25-.68,0-1.44,0-1.7-.84a10.83,10.83,0,0,1,2.12-4.18,21.25,21.25,0,0,0,3.61-12.39q0-61.44,0-122.88c0-.45,0-.9,0-1.34a1,1,0,0,0-1-1c-.49,0-1,0-1.48,0H673.23c-.55,0-1.09,0-1.64,0-1.88-.06-2.27-.47-2.19-2.34,0-1,.19-2,.31-3,1.06-8.91-2.37-16-8.93-21.77-1.07-.94-2.37-1.64-3.17-2.88a2.44,2.44,0,0,1,0-.27c-.21-.61-.76-.89-1.2-1.28l-.22-.23a19.23,19.23,0,0,1-1.57-1.26l-.23-.23a2.62,2.62,0,0,1-.69-.55c-.39-.47-.38-.79.33-.8h1.33c3.54,0,7.09-.06,10.63,0a7.72,7.72,0,0,0,1.92.1c7.57,0,15.14,0,22.71,0,2.42,0,4.84.19,7.26.16h80.86a3.59,3.59,0,0,1,1.75.14l1.71,1.18c.57.34,1,.88,1.53,1.24l.24.24a13,13,0,0,1,2.21,2.11l.22.23c.28.63.89,1,1.21,1.6l1.17,1.69c.33.52.55,1.1.92,1.59.18.37.62.61.57,1.09,2.72,5.76,3.6,11.91,4,18.17,0,1.18,0,2.35,0,3.53,0,.62-.22.87-.86.86a17.9,17.9,0,0,0-2.64.05,5.66,5.66,0,0,1-2.35.21H745.36c-2.28,0-2.34.08-2.37,2.32-.64,41.76-.09,83.51-.28,125.27C743,504.92,743.33,507.64,744.73,510.08Z"/><path class="cls-2" d="M556.56,513.5l-.33.48c-.59.35-.92,1-1.41,1.42a7.82,7.82,0,0,1-6,2.64q-37.24-.09-74.5,0a6.07,6.07,0,0,1-2.5-.25c-.87-.8.1-1.35.29-2,.67-1.27,1.43-2.49,2.2-3.71a19.24,19.24,0,0,0,3.11-10.56q0-72.54,0-145.09a18,18,0,0,0-2.6-9.65,2.25,2.25,0,0,1-.5-1.52c-.51-.43-.57-1.11-.89-1.64a20.92,20.92,0,0,0-1.36-2.22c-.19-.28-.25-.51.13-.68q23.4,0,46.78,0c.59,0,1.84-.4.93,1l-.56.86c-.53.71-1,1.43-1.51,2.19l-1.17,1.66c-2.22,3.47-2.82,7.4-2.83,11.38q-.06,62.28,0,124.54c0,.45-.26,1,.31,1.35,16.55,0,33.11,0,49.67,0,2,0,2,0,1.86,2.08a38,38,0,0,0-.28,4.88,60.4,60.4,0,0,1-1.1,7.09,34.75,34.75,0,0,1-4.11,10.91L559,510.32a14.44,14.44,0,0,1-1,1.26l-.23.23C557.53,512.49,556.63,512.7,556.56,513.5Z"/><path class="cls-3" d="M296.32,405.1c.84.21,1.26.43,1,1.58a82.73,82.73,0,0,0-3,21.23,107.76,107.76,0,0,0,5.6,33.49c.28.85.6.92,1.32.69,1.5-.48,3.06-.8,4.51-1.39,1.92-.79,3.47-.19,4.95.95a15.89,15.89,0,0,1,5.64,9.16,14.34,14.34,0,0,1,.3,1.45c.31,2.43.12,4.61-2.29,6.09a26,26,0,0,0-3.14,2.74c-.39.35-.66.58-.19,1.18,10.36,13.51,23,24.08,38.94,30.48a91.57,91.57,0,0,0,14.39,4.4c.63.14,1.05.22.9,1-.39,1.63-.87,3.25-1.14,4.9-.16,1-.52,1.16-1.46,1-23.45-4-42.67-15.14-57.36-33.92-.69-.89-2-1.69-1.89-2.67s1.45-1.5,2.25-2.24a4.64,4.64,0,0,1,.67-.59c3.11-1.85,3.33-4.63,2.57-7.77a16.11,16.11,0,0,0-6.07-9.75,4.68,4.68,0,0,0-4.74-.79c-1.47.56-3,.92-4.54,1.4-.63.2-.92.09-1.15-.62-3.55-10.87-6-22-5.4-33.45a134.06,134.06,0,0,1,4.93-28.82c.19-.69.44-.83,1.13-.6a31,31,0,0,0,3,.72A1,1,0,0,1,296.32,405.1Z"/><path class="cls-3" d="M567.87,345.21c2.48,2.93,3.36,6.45,3.63,10.15.12,1.78,0,3.57,0,5.36q0,69.43,0,138.86c0,5.24-1.08,10-4.23,14.23-.79,1.07-1.45,2.23-2.15,3.33.34.51.77.29,1.12.29q38.76,0,77.51,0a3.21,3.21,0,0,0,2.07-.64c.9-.68,1.83-1.33,2.75-2,.3-.07.45,0,.34.33a24.13,24.13,0,0,1-7.16,6.82,2.17,2.17,0,0,1-1.26.31H561.74c-.09,0-.18,0-.45-.09,1.09-1.7,2.1-3.38,3.21-5a19.56,19.56,0,0,0,3.35-11.36q0-72.08,0-144.16a19.46,19.46,0,0,0-3.37-11.35c-1.09-1.58-2.08-3.22-3.31-5.13Z"/><path class="cls-3" d="M657.61,345A22.35,22.35,0,0,1,664,350.4c5.46,6,7.26,13.13,6,21.09-.46,2.86-.48,2.85,2.44,2.85,10.93,0,21.85,0,32.78,0,1.18,0,1.59.22,1.59,1.52q-.06,62.54,0,125.08a19.81,19.81,0,0,1-3.44,11.63c-.9,1.3-1.69,2.67-2.53,4-.21.37-.17.88-.64,1.1a.55.55,0,0,1-.59-.17c.17-1.07,1.07-1.72,1.5-2.65a20.7,20.7,0,0,0,1.86-7.28c.05-.7,0-1.39,0-2.09q0-62.28,0-124.55c0-1.48-.39-1.74-1.78-1.74-11.28.07-22.55,0-33.83.06-1.15,0-1.57-.19-1.32-1.45,2.22-11.55-1.8-20.59-11.17-27.43A38.72,38.72,0,0,1,650.8,345Z"/><path class="cls-3" d="M183,345.21c2.45,2.94,3.33,6.46,3.62,10.16.11,1.43,0,2.88,0,4.32q0,69.71.05,139.43c0,5.55-1.08,10.59-4.49,15a21.25,21.25,0,0,0-1.31,2.15c-.37.6-.56,1.12.5,1.07.35,0,.7,0,1,0q19.38,0,38.74,0c.6,0,1.33-.3,1.75.45l2.89,4.32H176.42c1.09-1.7,2.11-3.37,3.22-5A19.55,19.55,0,0,0,183,505.82q0-72,0-144a19.59,19.59,0,0,0-3.38-11.49c-1.09-1.58-2.08-3.22-3.3-5.12Z"/><path class="cls-3" d="M506.14,563.18q1.49,5,3,10.08c.38.55.19,1.16.19,1.74q0,37.31,0,74.61c0,2.16,0,2.16,2.09,2.16h50.36c1.8,0,1.8,0,1.8,1.72v46.32c0,2,.13,1.75-1.79,1.69-.65,0-1.48.47-2-.42q0-21.68.07-43.34c0-1.24-.62-1.07-1.37-1.07-17,0-34.07,0-51.1.05-1.61,0-1.87-.47-1.87-2,.05-23.93,0-47.86.06-71.78a24,24,0,0,0-1.12-7.72c-1.31-4-2.42-8-3.61-12A12.37,12.37,0,0,1,506.14,563.18Z"/><path class="cls-3" d="M607.78,563.2l3,10.07c.42.53.2,1.15.2,1.72q0,37.46,0,74.91c0,2.05-.23,1.87,1.8,1.87h50.36c2.46,0,2.09-.28,2.09,2.17q0,22.63,0,45.27c0,2.33,0,2.36-2.4,2.29-.45,0-1.13.41-1.36-.42,0-14.45,0-28.9.07-43.35,0-1.24-.64-1.06-1.38-1.06-17.08,0-34.17,0-51.26,0-1.29,0-1.7-.25-1.7-1.65q.08-37.32,0-74.62a6.9,6.9,0,0,0-.2-2.06c-1.53-5-3-10.12-4.51-15.18A12.53,12.53,0,0,1,607.78,563.2Z"/><path class="cls-3" d="M244.42,562.85c2.7,4,3.46,8.4,3.45,13.13q-.06,70.39,0,140.79a25.39,25.39,0,0,1-5.57,16.5c-.28,0-.46,0-.32-.35a26.31,26.31,0,0,0,2.14-11.26q-.06-70.71,0-141.43a21.56,21.56,0,0,0-3.9-13.12c-.93-1.28-1.72-2.66-2.76-4.26Z"/><path class="cls-3" d="M474.27,345.21c2.46,2.93,3.34,6.45,3.62,10.15.11,1.38,0,2.78,0,4.17q0,70.52,0,141a22.81,22.81,0,0,1-4.85,14.17c-.32.43-.63.87-.94,1.3-.26.06-.42,0-.29-.3,2.5-4.74,2.4-9.87,2.4-15q0-68.9,0-137.81a21.89,21.89,0,0,0-4-13.43c-.92-1.26-1.71-2.63-2.75-4.25Z"/><path class="cls-3" d="M378.55,563.77c2.25,3.77,2.88,7.89,2.87,12.24q-.06,71.18,0,142.35a20.42,20.42,0,0,1-4.55,13.45c-.59,0-.54-.32-.4-.71,1.21-3.68,1.25-7.48,1.25-11.31q0-69.62,0-139.23a22,22,0,0,0-4-13.54c-.85-1.16-1.59-2.4-2.37-3.6.05-.5.44-.45.78-.45,1.72,0,3.45,0,5.18,0A1.18,1.18,0,0,1,378.55,563.77Z"/><path class="cls-3" d="M818,470.45c.35-1.11.37-2.64,1.13-3.24.92-.73,2.48-.23,3.76-.23,6.16,0,12.31,0,18.47,0a1.45,1.45,0,0,1,1.71,1.29q4.26,16.56,8.61,33.11c1.18,4.48,1.14,8.79-1.25,12.91a20.51,20.51,0,0,0-.9,2c-.24.62-.21,1.08.62,1.09h1.19q21.5,0,43,0c.59,0,1.33-.32,1.73.47l4.29,3.9-.27.4H845.26c.66-1.42,1.24-2.87,2-4.23a14.19,14.19,0,0,0,1-10.55c-2.9-11.43-5.9-22.84-8.86-34.26-.19-.73-.33-1.28-1.38-1.27-6.65.07-13.31,0-20,.06A1.37,1.37,0,0,1,818,470.45Z"/><path class="cls-3" d="M376.46,731.1a.79.79,0,0,0,.4.71c-.43.77-.86,1.54-1.28,2.31-.18.39-.14.69.34.76a10.62,10.62,0,0,0,1.49,0H488.15c.65,0,1.42-.31,1.93.42.9,1.46,1.81,2.91,2.8,4.51H371.21C372.91,736.84,375.06,734.19,376.46,731.1Z"/><path class="cls-3" d="M756.89,688s.09-.07.1-.12c.93-3.22.93-3.22,4.29-3.22,6.36,0,12.71,0,19.06,0a1.37,1.37,0,0,1,1.58,1.24c3,11.42,6,22.82,8.85,34.26a14.4,14.4,0,0,1-1,10.83c-.61,1.12-1.06,2.33-1.58,3.51.19.86.88.44,1.31.44,6.9,0,13.79,0,20.68,0h22.91c.56,0,1.22-.24,1.61.44l4.43,4.07-.31.41H784.08c.68-1.46,1.27-2.86,2-4.2a14.2,14.2,0,0,0,1-10.54Q782.55,707.52,778,690c0-.08-.12-.15-.17-.23a3.87,3.87,0,0,0-1.62-.12h-18C756.47,689.61,756.47,689.6,756.89,688Z"/><path class="cls-4" d="M443.59,563.4c.1-.61.59-.4.93-.41a21.14,21.14,0,0,0,3.38,0c2.3-.41,3.44.77,4.21,2.67.3.76.64,1.51,1,2.27a23.51,23.51,0,0,1,1.07,7q0,62.32,0,124.65c0,2.35.29,2-2.08,2-.63,0-1.41.36-1.89-.44,0-.54.05-1.08.05-1.63V580.35a26.88,26.88,0,0,0-.85-7.2C448.33,569.37,445.72,566.53,443.59,563.4Z"/><path class="cls-3" d="M610.81,721.05,606,735h1.91q36.9,0,73.78.05a8.64,8.64,0,0,0,5.7-2c.38-.31.8-.57,1.21-.85-1.08,2.62-3.16,4.37-5.3,6a7.92,7.92,0,0,1-5.21,1.71c-24.68-.07-49.36,0-74,0-1.8,0-1.8,0-1.22-1.74,1.24-3.69,2.45-7.4,3.73-11.08.69-2,.46-4,.5-6,.11-5,.12-9.93.16-14.89a9.91,9.91,0,0,1,3.07-.17c.43,0,.63.21.63.64C610.87,711.45,611.13,716.25,610.81,721.05Z"/><path class="cls-3" d="M583.45,734.5c1.36-.48,2.31-1.59,3.52-2.29a11.55,11.55,0,0,1-3.44,4.55,10.93,10.93,0,0,1-8.08,3.26c-24.34-.15-48.68-.08-73-.08-1.79,0-1.79,0-1.21-1.73,1.24-3.7,2.45-7.4,3.74-11.08a12.85,12.85,0,0,0,.49-4.26c.06-5.56.1-11.12.15-16.68a9.89,9.89,0,0,1,3.07-.18c.56,0,.62.36.62.8q0,6.84,0,13.7a4.69,4.69,0,0,1-.39,1.42c-1.28,3.85-2.58,7.69-3.84,11.54-.44,1.36-.39,1.44,1,1.44h75.66A3.43,3.43,0,0,0,583.45,734.5Z"/><path class="cls-3" d="M809.92,348.25c-2.26,8.59-4.54,17.18-6.77,25.78q-12.31,47.31-24.61,94.64-4.1,15.78-8.2,31.55a24,24,0,0,1-4.26,8.59c-.32.42-.56,1-1.17,1.07,3.11-8.65,5-17.65,7.29-26.52Q785.34,433.2,798.32,383c2.82-10.85,5.58-21.71,8.48-32.54.5-1.86-.52-3.37-.57-5.16h4.31A8.34,8.34,0,0,1,809.92,348.25Z"/><path class="cls-3" d="M749.36,563.38q-4.11,15.75-8.22,31.49l-25.77,99.22c-2,7.88-4.07,15.78-6.16,23.65a22.9,22.9,0,0,1-4.77,9.28c-.32.05-.52,0-.37-.4,3.19-9.4,5.26-19.12,7.77-28.71q12.7-48.42,25.22-96.89,4.32-16.63,8.65-33.26c.44-1.67-.48-3.07-.73-4.61a14.63,14.63,0,0,1,4.23-.11C749.43,563,749.34,563.25,749.36,563.38Z"/><path class="cls-3" d="M471.67,517.48c3.33,0,6.65,0,10,0,22,0,43.92-.06,65.87.06a9.72,9.72,0,0,0,7.48-2.73c.32,0,.46.08.4.4a25.28,25.28,0,0,1-7.07,6.72,2.37,2.37,0,0,1-1.39.39H468.12a2.46,2.46,0,0,1-.45-.13l3.41-5.2C471.53,516.84,471.35,517.44,471.67,517.48Z"/><path class="cls-3" d="M284.63,669.28q5.12,9,10.23,18.07,8.42,14.77,16.88,29.5a5.15,5.15,0,0,1,.72,3.63A25.69,25.69,0,0,1,307,733c-.31,0-.47-.05-.34-.39a41.91,41.91,0,0,0,2-7.37,4.36,4.36,0,0,0-.49-3.11q-11.67-20.36-23.29-40.76c-.24-.42-.55-.81-.82-1.21a1.86,1.86,0,0,1-.47-1.49q0-4.59,0-9.16c0-.3-.17-.77.31-.84S284.52,668.94,284.63,669.28Z"/><path class="cls-3" d="M223.27,451.36q5.79,10.2,11.58,20.4c5.24,9.2,10.47,18.41,15.77,27.58a5.5,5.5,0,0,1,.62,3.8,26.93,26.93,0,0,1-5.59,12.61c-.3.06-.46,0-.35-.36a35.7,35.7,0,0,0,2.32-8.24,3,3,0,0,0-.28-2.14q-12.09-21.12-24.14-42.25a4.29,4.29,0,0,0-.28-.35c-.44-.3-.4-.76-.4-1.2,0-3.08,0-6.15,0-9.23C222.53,451.54,222.32,450.73,223.27,451.36Z"/><path class="cls-3" d="M372.65,513.28c.58-4.69,4.46-4.91,7.82-5.52a14,14,0,0,1,8.51,1.42,3.93,3.93,0,0,1,2.52,3.2c.22,1.66.84,3.26,1,4.92.15,1.26.67,1.3,1.71,1.11,16.9-2.94,32.08-9.59,45.11-20.88.31-.07.43.05.35.36a86.78,86.78,0,0,1-28.88,19.61,85.82,85.82,0,0,1-18,5.31c-2.18.41-4.37.75-6.54,1.24-.82.18-1.11-.06-1.25-.9-.28-1.71-.8-3.37-1.06-5.08a4.12,4.12,0,0,0-2.53-3.23A17,17,0,0,0,372.65,513.28Z"/><path class="cls-3" d="M361.86,735.69l3,4.5c-21-.48-41.77-.34-62.83-.36,1.28-1.94,2.42-3.65,3.56-5.36.32-.08.52.14.76.3a4,4,0,0,0,1.76.13h50.59A4.76,4.76,0,0,1,361.86,735.69Z"/><path class="cls-3" d="M300.75,518.16l2.91,4.45c-21-.53-41.76-.25-62.81-.34l3.32-5a1.5,1.5,0,0,1,1.1.06,6.65,6.65,0,0,0,1.78.08h51.68C299.48,517.38,300.38,517.1,300.75,518.16Z"/><path class="cls-3" d="M807.21,517.87c.62,1.39,1.24,2.78,1.91,4.3H754.19l4.19-4.34c.27-.61.82-.45,1.3-.45H806C806.43,517.38,807,517.23,807.21,517.87Z"/><path class="cls-3" d="M745.79,735.07l2.18,4.79H693c1.64-1.7,3.13-3.25,4.63-4.79a2.09,2.09,0,0,1,1.3-.15h45.58A2.08,2.08,0,0,1,745.79,735.07Z"/><path class="cls-3" d="M655.53,374.48a23.13,23.13,0,0,0,.1,3.12c.19,1.28-.13,1.67-1.52,1.66-9.52-.07-19.05-.05-28.57,0q-8.87,0-17.71,0a.28.28,0,0,1-.43-.22c0-1.19,0-2.39,0-3.58-.07-1,.38-1.34,1.31-1.28.29,0,.59,0,.89,0h43.95C654.19,374.2,654.92,374,655.53,374.48Z"/><path class="cls-4" d="M655.48,434.09l.09,1.18c.4,3.72.4,3.72-3.25,3.72H609c-1.6,0-1.65,0-1.59-1.58,0-1.13-.52-2.57.27-3.28s2.09-.19,3.18-.19h43A3,3,0,0,1,655.48,434.09Z"/><path class="cls-3" d="M694.91,592.32l0,4.45a2.52,2.52,0,0,1-1.46.15h-45.1c-1.57,0-1.6,0-1.57-1.62,0-1.08-.47-2.47.21-3.16s2.16-.26,3.28-.26q21.59,0,43.17,0C693.89,591.9,694.62,591.44,694.91,592.32Z"/><path class="cls-3" d="M790.82,376.32c0,2.9,0,2.9-2.91,2.9h-45a23.78,23.78,0,0,1-.15-4.13c0-.61.31-.77.84-.74.34,0,.69,0,1,0h43.87C790.58,374.34,790.58,374.34,790.82,376.32Z"/><path class="cls-3" d="M284.08,735.35l2.93,4.41H237.55l3.32-5a1.71,1.71,0,0,1,1.09.14c13.45,0,26.9,0,40.35,0C282.92,734.92,283.63,734.64,284.08,735.35Z"/><path class="cls-3" d="M699.56,517.49h.72a4.45,4.45,0,0,1,2.05-.11q19.45,0,38.9,0a3,3,0,0,1,1.6.15l2.85,4.65H696.4C697.5,520.56,698.53,519,699.56,517.49Z"/><path class="cls-3" d="M321.35,365a140.71,140.71,0,0,0-11.64,13.59c1.32,1.12,2.57,2.33,4,3.34a5.24,5.24,0,0,1,2.31,5.38c-.6,4.4-2.2,8.3-5.73,11.17-1.06.87-2.22,1.84-3.82,1.36a19.65,19.65,0,0,0,2.08-8,4.11,4.11,0,0,0-1.66-3.62c-1.29-1-2.46-2.16-3.75-3.16-.76-.58-.76-1-.17-1.71a154.11,154.11,0,0,1,12.46-14.18c1.23-1,1.91-2.57,3.58-3l2-1.52C321.32,364.55,321.43,364.67,321.35,365Z"/><path class="cls-5" d="M450.17,701.07c1,.51,2.15.14,3.22.23.44,0,.61-.23.6-.65s0-.79,0-1.19q0-62.1,0-124.21a38.7,38.7,0,0,0-.93-7.36,13.59,13.59,0,0,1,1.22,6.6q.06,26.73,0,53.47v71.79c0,1.93,0,1.93-1.93,1.93H419c-2,0-2,0-2-2q0-62.17,0-124.36a15.85,15.85,0,0,1,.84-5.94c.09-.15.19-.14.28,0a20.2,20.2,0,0,0-.56,5.59v77.7c0,15.59,0,31.17,0,46.75,0,1.38.39,1.73,1.74,1.72C429.62,701.06,439.89,701.08,450.17,701.07Z"/><path class="cls-6" d="M661.45,701.08c1,.48,2,.14,3,.22.68.06.63-.46.63-.91,0-1.73,0-3.47,0-5.21q0-20.85,0-41.7c0-1.27-.23-1.65-1.59-1.65-17,.06-34.07,0-51.1.07-1.32,0-1.64-.32-1.64-1.63q.06-37.32,0-74.62c0-.8-.08-1.59-.12-2.38.71.58.38,1.39.38,2.08q0,37.15,0,74.32c0,1.91,0,1.91,1.93,1.92h50.36c2,0,2,0,2,1.89,0,15.45,0,30.89,0,46.33,0,1.5-.37,1.91-1.9,1.9-17.38-.06-34.76,0-52.15,0-.11-.09-.28-.12-.3-.3.51-.47,1.13-.26,1.71-.26Q637.12,701.08,661.45,701.08Z"/><path class="cls-6" d="M559.8,701.08c1,.48,2,.14,3.05.22.68.06.64-.45.64-.9v-3.73c0-14.4,0-28.79,0-43.19,0-1.26-.23-1.65-1.59-1.65-17,.06-34,0-51,.07-1.45,0-1.78-.36-1.78-1.79q.07-37.17,0-74.32c0-.84-.08-1.69-.12-2.53.68.6.38,1.4.38,2.1q0,37,0,74c0,2.18,0,2.19,2.19,2.19,16.74,0,33.48,0,50.22,0,1.54,0,1.89.42,1.89,1.91q-.09,23.16,0,46.33c0,1.47-.33,1.93-1.88,1.93-17.39-.06-34.78,0-52.16,0-.12-.09-.29-.13-.32-.31.56-.48,1.24-.26,1.86-.26Z"/><path class="cls-3" d="M321,663.24c-1.59-1.27-2.11-3.22-3.45-5,2.78,0,5.18,0,7.58,0a22.47,22.47,0,0,0,14.44-4.86c.33-.26.58-.72,1.12-.59a21.38,21.38,0,0,1-12,9.29A31,31,0,0,1,321,663.24Z"/><path class="cls-3" d="M262.92,445.46c-2.87.68-4.52-.7-5.49-3.24-.19-.49-.65-.87-.71-1.6,2.24,0,4.45-.06,6.65,0a22.42,22.42,0,0,0,15.15-5c.26-.2.49-.53.9-.41a7.28,7.28,0,0,1-2.1,3A22.6,22.6,0,0,1,262.92,445.46Z"/><path class="cls-7" d="M655.48,434.09c-15.38,0-30.77,0-46.16,0-1.45,0-1.83.36-1.78,1.79.12,3.06,0,3.06,3.15,3.06h43c1.88,0,1.87,0,1.82-1.89,0-.59,0-1.18,0-1.77.5,1,.2,2.14.28,3.21,0,.49-.29.7-.75.71H609.4c-.83,0-1.63-.2-1.63,1.19.06,14.38.05,28.77.06,43.15a.63.63,0,0,1-.28.28c-.51-.36-.31-.9-.31-1.37,0-15.69,0-31.38,0-47.07,0-1.37.45-1.63,1.71-1.63,16.19,0,32.38,0,48.58.06,1.16,0,1.83-.21,1.61-1.52.1-.14.19-.14.28,0,.3,1.4-.18,2-1.67,1.83A20.52,20.52,0,0,0,655.48,434.09Z"/><path class="cls-8" d="M790.82,376.32c0-1.64-.82-1.95-2.37-1.94q-22,.11-44.07,0c-1.24,0-1.67.29-1.54,1.54a32.57,32.57,0,0,1,0,3.28V500.68c0,.64,0,1.29,0,1.93-.09.14-.17.15-.26,0,0-.6,0-1.2,0-1.79q0-62.25,0-124.5c0-2.49-.24-2.2,2.26-2.2h44.1c.64,0,1.28.05,1.93.08.11.06.14.13.12.2s-.07.11-.1.11Z"/><path class="cls-9" d="M490.08,721.35c-.47-.44-.3-1-.3-1.55q0-73.2,0-146.39c0-.25,0-.5,0-.75s.17-.15.26,0q0,35,0,70Q490.07,682,490.08,721.35Z"/><path class="cls-10" d="M694.91,592.32c-.39-.6-1-.31-1.5-.31-15,0-30,0-45,0-1.11,0-1.54.19-1.52,1.43.08,3.37,0,3.38,3.42,3.38l44.56,0c-.47.58-1.11.31-1.67.31q-22.12,0-44.26,0c-1.42,0-1.84.36-1.82,1.8.09,6.36.06,12.71.07,19.07,0,.19-.21.18-.29.29-.5-.36-.31-.91-.31-1.37,0-7.84,0-15.69-.05-23.53,0-1.33.38-1.65,1.68-1.65q24.94.06,49.89,0c.2-.1.29-.45.61-.26-.05.76-.63.57-1.09.62C696.72,592.13,695.78,591.82,694.91,592.32Z"/><path class="cls-3" d="M450.83,465c.59-3.33,5.24-6.4,8.35-5.51l2.81.82a3,3,0,0,0-.1.43c-.11,1.45-.8,1.8-2.09,1.15-1.09-.55-1.6-.18-1.86,1s-.22,3-1.19,3.48-2.3-.46-3.49-.77Z"/><path class="cls-11" d="M513.92,483.84c-.5-.43-.29-1-.29-1.54q0-62.7,0-125.4a20.3,20.3,0,0,1,2.09-9.32c.22-.44.38-.94.88-1.16-.86,2.2-2,4.32-2.19,6.74-.15,1.67-.46,3.34-.46,5q0,62.64,0,125.3A.21.21,0,0,1,513.92,483.84Z"/><path class="cls-12" d="M655.53,374.48c-.49,0-1-.09-1.48-.09-14.91,0-29.83,0-44.75,0-1.47,0-1.91.41-1.74,1.82a24.52,24.52,0,0,1,0,3,24.38,24.38,0,0,1,.1,4.27c0,5,0,10.07,0,15.1a3.34,3.34,0,0,0,.13,1.6h0c0,.51-.22.5-.56.28,0-8.29,0-16.58-.06-24.87,0-1.54.71-1.65,1.92-1.65q24,0,48,0c2.15,0,2.11,0,1.81-2.11a19.91,19.91,0,0,1-.06-2.68.26.26,0,0,1,.36,0c.16.38-.07.83.2,1.2,0,1,0,2.09,0,3.13,0,.79-.29,1.06-1,1C657.42,374.45,656.47,374.48,655.53,374.48Z"/><path class="cls-13" d="M596.51,705.57v-62c.21-.15.06-.48.31-.62.41.47.27,1,.27,1.57v60.25c0,.49.12,1-.27,1.42C596.57,706.05,596.72,705.72,596.51,705.57Z"/><path class="cls-14" d="M698.17,705.56V643.85c.2-.15.06-.47.3-.6.42.46.27,1,.27,1.56q0,29.82,0,59.65c0,.48.14,1-.26,1.41C698.29,705.84,698.27,705.66,698.17,705.56Z"/><path class="cls-15" d="M490.08,735.34a3.46,3.46,0,0,0-2-.25H377c-.4,0-.8,0-1.19,0s-.68.14-.72-.28a.8.8,0,0,1,.51-.68c.06.4.25.63.68.62H494.2c.62,0,1.3.25,1.84-.3.79.54.43.64-.23.63-1.44,0-2.88,0-4.32,0C491,735.09,490.49,734.93,490.08,735.34Z"/><path class="cls-16" d="M509.43,701.37l.32.31c-.48.44-.28,1-.28,1.55q0,8.19,0,16.37a7.2,7.2,0,0,1-.4,2.48c-1.27,3.75-2.48,7.53-3.79,11.26-.41,1.18-.13,1.43,1.06,1.43q37.6,0,75.21,0a15.18,15.18,0,0,0,1.9-.24,1.78,1.78,0,0,1-1.6.59H505.11a6.23,6.23,0,0,1-.7-.08c1.44-4.35,2.86-8.66,4.31-13a7.69,7.69,0,0,0,.44-2.61c0-4,0-7.94.06-11.91,0-1.13-.27-1.52-1.39-1.38a20.69,20.69,0,0,1-2.23.05c.7-.7,1.59-.29,2.37-.31s1.2-.28,1.21-1.19C509.2,703.58,508.85,702.43,509.43,701.37Z"/><path class="cls-17" d="M545.24,618.23c-.49-.37-.31-.91-.31-1.38q0-11.86,0-23.75c0-.47-.16-1,.29-1.39a2.26,2.26,0,0,1,.31.49,10.18,10.18,0,0,1,.18,2.81,1.15,1.15,0,0,0,1.29,1.27l1.64,0h41.7a7.93,7.93,0,0,1,2.52.18,1,1,0,0,1,.44.36c-.58.43-1.25.24-1.88.24q-22.12,0-44.25,0c-1.28,0-1.71.27-1.69,1.63.08,6.41,0,12.81.06,19.21C545.52,618.1,545.33,618.12,545.24,618.23Z"/><path class="cls-13" d="M284.63,669.28c-.25,0-.72-1.1-.71,0,0,3.61-.33,7.24.19,10.84l0,34.55,0,4.62c-.25.24,0,.66-.29.88-.37-.35-.27-.82-.27-1.26q0-25.29,0-50.57c0-.23-.1-.5.24-.73A1.84,1.84,0,0,1,284.63,669.28Z"/><path class="cls-11" d="M506.14,563.18a16.7,16.7,0,0,0-5.28,0c.19-.74.8-.43,1.23-.44,1.14,0,2.28,0,3.53,0a12.55,12.55,0,0,0-.85-3.55c-.22-.9.05-1.22.92-1.16h75.49c.94,0,1.91-.09,2.5.89a10.06,10.06,0,0,0-4.35-.59H507c-2.11,0-2.08,0-1.46,2.1A5.71,5.71,0,0,1,506.14,563.18Z"/><path class="cls-11" d="M607.78,563.2a16.7,16.7,0,0,0-5.28,0c1-.92,2.13-.34,3.19-.41,1.79-.11,1.8,0,1.27-1.75-1-3.35-1.15-3,2.18-3h73.69c.94,0,1.91-.09,2.51.89a10.06,10.06,0,0,0-4.35-.59h-72.5c-1.93,0-1.92,0-1.39,1.83A8.73,8.73,0,0,1,607.78,563.2Z"/><path class="cls-18" d="M266.49,340.79l-38.16,0q-23,0-45.9,0c-.6,0-1.3-.3-1.8.35-.19-.17-.63-.35-.19-.62.25-.15.67-.05,1-.05h83.69c.44,0,.89,0,1.33.05.11.05.14.1.11.15S266.52,340.79,266.49,340.79Z"/><path class="cls-8" d="M326.7,558.33q-41.56,0-83.12,0c-.62,0-1.3-.27-1.84.29-.22-.11-.52-.32-.23-.51a2,2,0,0,1,1-.09H326c.25,0,.5,0,.74,0s.15.11.11.17S326.74,558.33,326.7,558.33Z"/><path class="cls-19" d="M780.48,340.81l-82.61,0q-.17-.09-.12-.18c0-.07.07-.1.1-.1H779.1C779.57,340.51,780.1,340.34,780.48,340.81Z"/><path class="cls-18" d="M645.74,341.11a7.17,7.17,0,0,0-2.48-.31l-75.94,0c-.61,0-1.3-.26-1.83.3-.23-.16-.65-.34-.16-.57a2.88,2.88,0,0,1,1.18-.05h77.23C644.46,340.51,645.27,340.28,645.74,341.11Z"/><path class="cls-20" d="M607.25,400.4a.56.56,0,0,0,.56-.28H643.6c.67,0,1.42-.18,1.87.58H608.63C608.16,400.7,607.63,400.88,607.25,400.4Z"/><path class="cls-11" d="M749.36,563.38c-1.43-.7-2.92-.3-4.38-.23,1-.8,2.16-.35,3.23-.35s1.38-.51,1.19-1.45-.38-1.64-.64-2.44.06-.9.7-.86h40.09c.75,0,1.5,0,1,1.07-.92,2.26-.47,4.44.21,6.66s1.22,4.58,1.82,6.88c-.09.15-.19.14-.28,0-1.16-3.4-1.94-6.91-2.79-10.39a4.11,4.11,0,0,1,.47-2.43c.43-1.13.16-1.51-1.06-1.49-4.06,0-8.13,0-12.19,0-8.73,0-17.45,0-26.17,0-1.2,0-1.56.23-1.21,1.5S750.57,562.22,749.36,563.38Z"/><path class="cls-21" d="M300.75,518.16c-.48-.65-1.18-.6-1.87-.6l-54.07-.08c-.37-.6-.13-.86.5-.89.25,1,1,.58,1.6.58q23.88,0,47.75,0c3.52,0,7,0,10.56,0,.57,0,1.06,0,1.23-.67.38.26.81.6.62,1.06s-.71.17-1.08.18c-1.29,0-2.58,0-3.87,0C301.64,517.83,301.1,517.64,300.75,518.16Z"/><path class="cls-16" d="M896.07,517.86c-.58-.52-1.3-.37-2-.37H850.33c-.94,0-1.89.07-.77-1.21,0,.56.17,1,.86.91s1.1,0,1.64,0l49.31,0h2c-2.22-2.24-4.21-4.21-6.17-6.22-.43-.44-1.06-.78-1.08-1.52l7.71,8.06c-2.08,0-4.08,0-6.08,0C897.17,517.55,896.53,517.28,896.07,517.86Z"/><path class="cls-22" d="M834.68,735.36a2.94,2.94,0,0,0-1.87-.28q-21.78,0-43.56,0c-.34,0-1.3.6-1.08-.6.34.4.82.29,1.25.29h51.7a7.12,7.12,0,0,0,.75-.11c-1.8-1.8-3.47-3.45-5.11-5.13-.47-.48-1.12-.85-1.22-1.63,2.55,2.1,4.69,4.62,7.38,7.2-2.45,0-4.49,0-6.53,0C835.81,735.1,835.19,734.89,834.68,735.36Z"/><path class="cls-4" d="M391.12,348c-.55,1.38-1.84,1.83-3,2.31a10,10,0,0,1-3.8.93.32.32,0,0,1,0-.56c.28-1.14.63-2.26.82-3.42.12-.75.44-.87,1.09-.72,1.33.31,2.68.59,4,.89C390.42,347.74,391.2,347.16,391.12,348Z"/><path class="cls-23" d="M223.27,451.36c-.19,0-.55-.39-.54.07.08,3.66-.3,7.33.19,11-.41.53-.21,1.15-.22,1.73,0,11.27,0,22.54,0,33.8,0,4.49.38,8.9,2.41,13a.2.2,0,0,1-.33,0,19.11,19.11,0,0,1-2.35-9.54c-.11-16.9,0-33.81,0-50.71a6.23,6.23,0,0,1,.07-.7A1.53,1.53,0,0,1,223.27,451.36Z"/><path class="cls-24" d="M361.86,735.69a2.06,2.06,0,0,0-1.65-.47c-7.84-.06-15.68-.15-23.52-.18-9.78,0-19.56,0-29.34,0-.5,0-1.09.3-1.51-.26.22-.18,0-.8.61-.58.26,1,1.06.54,1.61.54,16.61,0,33.23,0,49.85.07,2.92,0,5.83.36,8.76.27.72,0,1.17-.09.88-.95a1.4,1.4,0,0,1,.72,1.23c-1.66,0-3.29,0-4.92,0C362.84,735.36,362.25,735.13,361.86,735.69Z"/><path class="cls-17" d="M545.26,592.09l0-.38c16.51,0,33,0,49.52,0,1.46,0,1.92-.42,1.78-1.83-.11-1.18,0-2.38,0-3.57.28-.24,0-.67.3-.9.6,2,.16,4,.26,6,0,.53-.39.62-.82.62h-2.66a3.92,3.92,0,0,1-.53.29,7.14,7.14,0,0,1-2.21.17h-43A4,4,0,0,1,545.26,592.09Z"/><path class="cls-25" d="M745.79,735.07H697.61c-.45,0-1.24.21-.46-.65.3-.32.66-.58,1-.88.09.08.13.15.1.22s-.06.11-.09.11c0,.32-1,.88.22.88h51.69c.29,0,.58,0,.93,0-.25-1.55-1.54-2.63-1.58-4.17a21.18,21.18,0,0,1,1.87,3.52c.45.84,0,1-.73,1C749,735.06,747.38,735.07,745.79,735.07Z"/><path class="cls-26" d="M513.92,483.84l0-.37c.64,0,1.29.06,1.93.06,16.07,0,32.14,0,48.21,0,1.36,0,1.86.33,1.72,1.73-.19,1.91-.24,3.84-.35,5.77q-.13.21-.27,0a32.82,32.82,0,0,1,.25-5.33c.33-1.64.09-1.81-1.69-1.81Z"/><path class="cls-27" d="M286.47,421.86c.66-20,.09-39.93.3-59.89.09-.14.17-.14.25,0q0,15.15,0,30.32c0,6.79,0,13.58,0,20.37a55.32,55.32,0,0,1-.32,9.19C286.64,422,286.56,422,286.47,421.86Z"/><path class="cls-28" d="M697.85,340.51c0,.09,0,.18,0,.28H667.06c-.39,0-.81.07-1.11-.28.55-.37,1.22.05,1.77-.28C677.76,340.3,687.81,340,697.85,340.51Z"/><path class="cls-8" d="M347.89,637.3V579.21c.08-.14.17-.14.25,0l0,53.46c0,1.54,0,3.08,0,4.62C348.06,637.44,348,637.45,347.89,637.3Z"/><path class="cls-29" d="M807.21,517.87c-.41-.47-1-.38-1.5-.38H759.92a2.24,2.24,0,0,0-1.54.34c-.81-.65-.1-1,.29-1.34.06,1,.8.69,1.34.69h15.47q17.63,0,35.26,0c.55,0,1.36.42,1.59-.58.42.47.83.92-.29.91s-2.33,0-3.5,0C808.08,517.54,807.55,517.35,807.21,517.87Z"/><path class="cls-11" d="M422.4,560.81a1.56,1.56,0,0,1,.06-.44c.28-.61,1.19-1.25.89-1.73-.42-.68-1.45-.27-2.21-.27q-22,0-44,0c-.67,0-1.61-.31-1.54.95-.36-.27-.83-.62-.61-1.06s.8-.19,1.22-.19q23.16,0,46.31,0c.51,0,1.23-.3,1.5.24s-.39.94-.65,1.4A2.89,2.89,0,0,1,422.4,560.81Z"/><path class="cls-30" d="M284.08,735.35c-.45-.43-1-.32-1.55-.32h-41c-.27-.36-.26-.58.26-.57.36.39.84.26,1.27.26h46c.24,0,.47,0,.78-.05-.14-1.09-1.23-1.64-1.3-2.67.92.76,2,1.82,1.8,2.8-.11.64-1.83.16-2.83.27S285.19,734.79,284.08,735.35Z"/><path class="cls-11" d="M495.74,558.93c0-.22.23-.51-.18-.56a9,9,0,0,0-1,0q-22.63,0-45.27,0c-.38,0-1.26-.57-1.22.55-.11.17-.22.18-.35,0-.43-.37-.83-.75.14-.9a4.56,4.56,0,0,1,.74,0q23.32,0,46.64,0c.43,0,1.09-.33,1.27.34C496.57,558.78,496.12,558.94,495.74,558.93Z"/><path class="cls-31" d="M223,517.84c-.54-.51-1.21-.34-1.84-.34h-40.8a1.2,1.2,0,0,1,.61-1.18c.06.35-.35,1,.5.88a2.8,2.8,0,0,1,.29,0l46.26,0c.34,0,.71,0,.95-.28-.08-.08-.11-.16-.07-.23s.06-.11.09-.11c.44.41,1,.88-.19.92-1.48,0-3,0-4.43,0C223.85,517.53,223.32,517.33,223,517.84Z"/><path class="cls-32" d="M607.55,483.82l.28-.28h49.32c.65,0,1.29,0,1.94,0,.09.06.12.13.09.2s-.06.11-.09.11l-27.26,0Z"/><path class="cls-33" d="M742.83,517.53l-42.55,0a.9.9,0,0,1,.51-.94c.22,1,1,.61,1.59.61q16.9,0,33.82,0c3.82,0,7.65,0,11.47,0,.78,0,1.13-.16.86-1a1.45,1.45,0,0,1,.71,1.28Z"/><path class="cls-18" d="M519.86,341.71c.12-.49.29-1-.57-.91a4.7,4.7,0,0,1-.75,0h-45c-.56,0-1.2-.24-1.69.29-.09.12-.17.12-.25,0s-.25-.42,0-.51a2.27,2.27,0,0,1,.87-.08H520.2a2.09,2.09,0,0,1,.32.05A1,1,0,0,1,519.86,341.71Z"/><path class="cls-18" d="M851.37,340.82h-39.7c-.52,0-1.26-.34-1.44.58-.09.13-.17.12-.24,0,0-.39-.15-.84.47-.87.25,0,.5,0,.74,0l40.47,0C851.76,340.81,851.65,340.91,851.37,340.82Z"/><path class="cls-34" d="M545.24,618.23l.3-.32,35.86,0c.7,0,1.52-.26,2,.59a7.28,7.28,0,0,0-2.33-.3Z"/><path class="cls-34" d="M646.9,618.22l.29-.29,35.86,0c.71,0,1.52-.25,2,.59a7.35,7.35,0,0,0-2.33-.3Z"/><path class="cls-35" d="M756.89,688c-.29,1.12,0,1.53,1.29,1.51,6-.1,12.08,0,18.12,0,.49,0,1.09-.3,1.5.27-6.6,0-13.19,0-19.79,0-1.1,0-1.51.34-1.78,1.42a87.43,87.43,0,0,1-2.35,8.71c-.36-.91.17-1.71.36-2.52.64-2.75,1.37-5.47,2.1-8.19C756.45,688.75,756.45,688.24,756.89,688Z"/><path class="cls-12" d="M749.21,730a6.07,6.07,0,0,1-1.3-3.82c-.37-3.74.73-7.25,1.65-10.79.68-2.58,1.32-5.17,2-7.75.1-.13.19-.12.29,0-.4,3.14-1.55,6.1-2.23,9.17a50.72,50.72,0,0,0-1.34,6.2A16.64,16.64,0,0,0,749.21,730Z"/><path class="cls-36" d="M611.09,701.37l.3.3c-.48.5-.27,1.13-.27,1.69,0,5.39,0,10.78,0,16.16,0,.52.21,1.1-.3,1.53,0-4.51,0-9,.06-13.53,0-1.11-.26-1.53-1.39-1.38a18.4,18.4,0,0,1-2.23.05c.76-.71,1.69-.26,2.53-.31s1-.27,1.05-1C610.88,703.68,610.51,702.49,611.09,701.37Z"/><path class="cls-12" d="M794.15,369.72c-.54-2.31-.4-4.69-.83-7a43.74,43.74,0,0,0-2.85-9.91,4.55,4.55,0,0,1-.21-1c1.68,2.47,2.22,5.35,2.94,8.15a54.69,54.69,0,0,1,1.2,9.79C794.31,369.85,794.23,369.84,794.15,369.72Z"/><path class="cls-30" d="M596.51,705.57c.24.13.27.37.31.61a54.74,54.74,0,0,1-3.12,15.65,3.61,3.61,0,0,1-.48.72c.67-2.91,1.75-5.72,2.25-8.68A60.93,60.93,0,0,0,596.51,705.57Z"/><path class="cls-20" d="M607.81,400.11a1.07,1.07,0,0,1-.29-.95q0-10,0-20a.34.34,0,0,1,.27.12Q607.82,389.68,607.81,400.11Z"/><path class="cls-7" d="M854.94,360.48c-1.16-3.19-1.77-6.53-2.67-9.79-.5-1.8-1-3.61-1.46-5.41q.13-.22.27,0c1.15,2.78,1.59,5.76,2.39,8.64.62,2.17,1.17,4.37,1.75,6.56C855.13,360.62,855,360.62,854.94,360.48Z"/><path class="cls-37" d="M414.36,345.87a30.25,30.25,0,0,1-4.88-1.68,85.92,85.92,0,0,0-10-2.78,2.85,2.85,0,0,1-.64-.3c-.1-.06-.14-.11-.1-.17s.06-.08.1-.08a86,86,0,0,1,13.71,4.08A4,4,0,0,1,414.36,345.87Z"/><path class="cls-7" d="M870.74,421.27c-1.11-3.16-1.77-6.44-2.65-9.66-.47-1.71-.88-3.44-1.34-5.15-.06-.26-.14-.47.11-.65,1.54,4.81,2.59,9.75,3.91,14.61.08.29.17.57.25.85C870.93,421.42,870.84,421.41,870.74,421.27Z"/><path class="cls-7" d="M812,648.34c-1.15-3.18-1.76-6.5-2.67-9.75-.39-1.42-.77-2.84-1.16-4.26.1-.15.2-.14.31,0,1.28,3.5,1.88,7.19,2.94,10.75.33,1.08.58,2.18.86,3.27C812.2,648.48,812.11,648.48,812,648.34Z"/><path class="cls-7" d="M802.18,610.5c-1.1-3.2-1.79-6.5-2.67-9.76l-1.17-4.25c.1-.15.2-.15.31,0,1.29,3.5,1.88,7.19,3,10.76.32,1.07.57,2.17.86,3.26C802.37,610.63,802.27,610.64,802.18,610.5Z"/><path class="cls-7" d="M890.42,497c-1.11-3.19-1.79-6.5-2.67-9.75L886.58,483c.1-.14.2-.15.31,0,1.29,3.5,1.88,7.19,3,10.75.32,1.08.57,2.18.85,3.27C890.6,497.11,890.51,497.1,890.42,497Z"/><path class="cls-7" d="M880.58,459.12c-1.1-3.2-1.79-6.5-2.67-9.76l-1.17-4.25c.1-.15.21-.15.32,0,1.28,3.5,1.88,7.19,2.94,10.76.32,1.07.58,2.17.86,3.26C880.77,459.26,880.67,459.26,880.58,459.12Z"/><path class="cls-38" d="M360.39,342a77.68,77.68,0,0,0-12.61,4.1,2.68,2.68,0,0,1-1.4.38c3.11-1.83,6.59-2.72,10-3.84,1.21-.4,2.47-.64,3.7-.95C360.39,341.55,360.44,341.72,360.39,342Z"/><path class="cls-38" d="M658.8,367a80.71,80.71,0,0,0-1.52-8.72c-.53-1.89-1.17-3.75-1.76-5.63a20.16,20.16,0,0,1,2.35,6.49,49.7,49.7,0,0,1,1.2,7.87C659,367.17,658.89,367.17,658.8,367Z"/><path class="cls-12" d="M818,470.45c0,.49-.23,1,0,1.46-1.21,3.13-1.76,6.44-2.68,9.66-.24.85-.44,1.71-.66,2.57-.09.12-.19.13-.28,0,.63-3.72,1.81-7.31,2.74-11A5.84,5.84,0,0,1,818,470.45Z"/><path class="cls-39" d="M691.89,728.21l2.69-5.57c1.12-2.31,1.46-4.88,2.38-7.25.08-.15.17-.15.25,0a40.83,40.83,0,0,1-3.87,10.81A5,5,0,0,1,691.89,728.21Z"/><path class="cls-39" d="M319,366.15a22.84,22.84,0,0,1-3.58,3,35.55,35.55,0,0,1,7.44-7.56c-.86,1.36-2.22,2.23-3.22,3.45C319.35,365.36,318.62,365.46,319,366.15Z"/><path class="cls-40" d="M667.72,340.24c-.53.49-1.18.16-1.77.28H653.69c0,.64.57.78.69,1.2-.85-.07-1.16-.79-1.62-1.48Z"/><path class="cls-16" d="M659.09,483.89v-.31c.67,1.12.12,2.35.29,3.52-.35.78.06,1.63-.24,2.41a53.18,53.18,0,0,1-1,8c-.08.13-.17.12-.25,0,.62-3.84.83-7.72,1.12-11.59C659.08,485.27,659.07,484.58,659.09,483.89Z"/><path class="cls-12" d="M596.82,642.94c0,.24-.07.49-.31.62a32.33,32.33,0,0,0-2.67-12.21c.1-.14.21-.15.32,0a24.43,24.43,0,0,1,2.33,7.82A15.55,15.55,0,0,1,596.82,642.94Z"/><path class="cls-30" d="M326.7,558.33a1,1,0,0,0,0-.25,19.28,19.28,0,0,1,10.83,3.54c-1.43-.29-2.58-1.21-3.91-1.74A32.14,32.14,0,0,0,326.7,558.33Z"/><path class="cls-30" d="M287,362h-.25a32.18,32.18,0,0,0-3.29-10.79,17.5,17.5,0,0,1,3.27,8.3A6.4,6.4,0,0,1,287,362Z"/><path class="cls-37" d="M560.13,508.66a10,10,0,0,1,1.31-3,31.16,31.16,0,0,0,2.58-7.85c.1-.12.19-.12.28,0A24.64,24.64,0,0,1,560.13,508.66Z"/><path class="cls-11" d="M659.37,432.29h-.28a2.77,2.77,0,0,1-.28-1.42,37.21,37.21,0,0,0-.55-7.6c0-.15.15-.33.23-.49A53.25,53.25,0,0,1,659.37,432.29Z"/><path class="cls-41" d="M490.06,572.65h-.26a17.82,17.82,0,0,1,2.95-9,.22.22,0,0,1,0,.36A27.7,27.7,0,0,0,490.06,572.65Z"/><path class="cls-39" d="M890.42,497h.27a41.78,41.78,0,0,0,3.33,9.53c-1.14-1-1.49-2.4-2-3.71A22.5,22.5,0,0,1,890.42,497Z"/><path class="cls-12" d="M657.91,497.55h.25c-.81,3.08-1.44,6.22-3.18,9-.12.16-.23.16-.33,0C656.24,503.7,656.9,500.56,657.91,497.55Z"/><path class="cls-7" d="M808.49,634.32h-.31q-1.2-4.62-2.39-9.24c.09-.14.19-.14.28,0A62.66,62.66,0,0,1,808.49,634.32Z"/><path class="cls-7" d="M886.89,482.94h-.31c-.8-3.08-1.59-6.16-2.39-9.24.09-.14.19-.14.29,0A62.63,62.63,0,0,1,886.89,482.94Z"/><path class="cls-7" d="M877.06,445.09l-.32,0q-1.18-4.62-2.39-9.24c.1-.15.19-.15.29,0A63.46,63.46,0,0,1,877.06,445.09Z"/><path class="cls-7" d="M798.65,596.47l-.31,0c-.8-3.08-1.59-6.16-2.39-9.24.09-.15.19-.14.29,0A62.5,62.5,0,0,1,798.65,596.47Z"/><path class="cls-25" d="M698.17,587.23c.16-3.51-.55-7-.91-10.41q.12-.18.24,0a43.9,43.9,0,0,1,1,8.92C698.55,586.27,698.93,586.87,698.17,587.23Z"/><path class="cls-38" d="M697.21,715.39H697c.33-2.44.61-4.89,1-7.32.15-.84.09-1.67.19-2.51l.3.31A54.58,54.58,0,0,1,697.21,715.39Z"/><path class="cls-7" d="M821.85,686.19c-1.05-2.71-1.49-5.59-2.35-8.35.09-.15.19-.14.29,0,1.05,2.7,1.51,5.58,2.34,8.34C822,686.33,822,686.33,821.85,686.19Z"/><path class="cls-38" d="M346.39,346.46a69.2,69.2,0,0,1-7.78,3.94c.49-.91,1.48-1.09,2.29-1.48C342.71,348.07,344.37,346.85,346.39,346.46Z"/><path class="cls-7" d="M864.78,398.33c-1-2.71-1.49-5.59-2.35-8.35.09-.15.19-.14.29,0,1,2.71,1.5,5.58,2.34,8.35C865,398.46,864.88,398.47,864.78,398.33Z"/><path class="cls-7" d="M818,671.29c-.79-2.78-1.57-5.57-2.36-8.35.1-.14.19-.15.29,0,1.06,2.7,1.51,5.58,2.35,8.34C818.17,671.43,818.07,671.43,818,671.29Z"/><path class="cls-42" d="M286.47,421.86h.26a21,21,0,0,1-2.37,6.92c-.23.42-.34,1-.87,1.14.54-1.83,1.76-3.38,2.19-5.26C285.89,423.72,286.2,422.8,286.47,421.86Z"/><path class="cls-25" d="M378.55,563.77a2,2,0,0,0-1.79-.76c-1.43.07-2.87,0-4.3,0-.39,0-.92-.24-1.13.37-.41-.92.37-.64.72-.64,1.76,0,3.53,0,5.42,0l-.75-1.74A5.5,5.5,0,0,1,378.55,563.77Z"/><path class="cls-7" d="M827.81,709.13c-.78-2.78-1.57-5.56-2.35-8.34.1-.15.19-.15.29,0,1.06,2.71,1.51,5.58,2.34,8.35C828,709.27,827.91,709.28,827.81,709.13Z"/><path class="cls-12" d="M348.14,579.22h-.25a25.58,25.58,0,0,0-2.15-7.86.44.44,0,0,1,.06-.54A18.13,18.13,0,0,1,348.14,579.22Z"/><path class="cls-7" d="M814.4,484.14h.28c-.84,2.77-1.29,5.65-2.34,8.35-.1.14-.2.15-.29,0Z"/><path class="cls-7" d="M860.9,383.43q-1.17-4.19-2.35-8.35c.1-.15.19-.14.29,0,1.06,2.7,1.51,5.58,2.34,8.34C861.09,383.56,861,383.57,860.9,383.43Z"/><path class="cls-43" d="M596.81,585.44c0,.32.05.68-.3.9a39.42,39.42,0,0,0-.84-8.25.54.54,0,0,1,.21-.64A29.46,29.46,0,0,1,596.81,585.44Z"/><path class="cls-44" d="M810.25,512.16c-1.65-2.47-1.25-5.22-1.08-7.94,0-.44.13-.87.2-1.3.09-.12.19-.12.28,0-.12,2.33-.65,4.65,0,7C809.87,510.65,810.05,511.41,810.25,512.16Z"/><path class="cls-45" d="M832.91,724.05c-.49,0-.67-.4-.82-.76-1-2.16-2.25-4.2-2.18-6.69A38.7,38.7,0,0,0,832.91,724.05Z"/><path class="cls-38" d="M493.42,730.29c-1.59-1.31-2.09-3.23-2.74-5a21.19,21.19,0,0,1-.59-2.41c.08-.13.16-.13.25,0A30,30,0,0,0,493.42,730.29Z"/><path class="cls-17" d="M698.17,587.23c.48-.42.18-1,.3-1.49.58,1.88.16,3.8.25,5.69l-.61.26Z"/><path class="cls-46" d="M347.89,637.3h.24a15.61,15.61,0,0,1-1.69,6.89c-.12.13-.22.12-.33,0C347.2,642,347.4,639.62,347.89,637.3Z"/><path class="cls-12" d="M360.39,342l-.33-.31c2-.47,4-.93,6-1.42,1-.25.88.65,1.17,1.14-.67-.83-1.49-.7-2.39-.45C363.37,341.35,361.87,341.65,360.39,342Z"/><path class="cls-39" d="M418.19,569.36h-.28a11.52,11.52,0,0,1,3.31-6.88c-.91,2-2.33,3.68-2.79,5.86C418.36,568.69,418.27,569,418.19,569.36Z"/><path class="cls-7" d="M751.82,707.64h-.29c.58-2.11,1.17-4.23,1.72-6.35.11-.43.12-.88.62-1.06A61.61,61.61,0,0,1,751.82,707.64Z"/><path class="cls-39" d="M698.16,733.87v-.32c1.63-1.67,3-3.6,5.08-4.8A48.06,48.06,0,0,1,698.16,733.87Z"/><path class="cls-30" d="M742.59,502.61h.26a35.56,35.56,0,0,0,1.88,7.47c-1.36-1.45-1.44-3.37-1.85-5.15A20.14,20.14,0,0,1,742.59,502.61Z"/><path class="cls-35" d="M796.24,587.25H796c-.53-2.11-1.05-4.22-1.58-6.33-.07-.27-.29-.55,0-.79A37.39,37.39,0,0,1,796.24,587.25Z"/><path class="cls-35" d="M806.07,625.09h-.28c-.53-2.1-1-4.21-1.59-6.32-.06-.28-.28-.55.06-.79A37.08,37.08,0,0,1,806.07,625.09Z"/><path class="cls-35" d="M812.05,492.49h.29a38.64,38.64,0,0,1-1.82,7.11c-.22-1.5.54-2.82.82-4.24C811.53,494.4,811.81,493.45,812.05,492.49Z"/><path class="cls-35" d="M815.91,662.94h-.29q-.78-3.16-1.58-6.33c-.07-.27-.28-.55.06-.79A38.13,38.13,0,0,1,815.91,662.94Z"/><path class="cls-7" d="M825.75,700.78h-.29c-.53-2.11-1.05-4.22-1.58-6.33-.07-.28-.29-.55.06-.79A38.62,38.62,0,0,1,825.75,700.78Z"/><path class="cls-45" d="M423.07,350.05a36.23,36.23,0,0,1-6.63-3.29A22.46,22.46,0,0,1,423.07,350.05Z"/><path class="cls-35" d="M858.84,375.08h-.29c-.53-2.11-1-4.22-1.58-6.33-.07-.27-.29-.55.06-.79A38.72,38.72,0,0,1,858.84,375.08Z"/><path class="cls-7" d="M874.64,435.87h-.29c-.53-2.11-1.05-4.22-1.58-6.33-.07-.27-.29-.55.06-.79A37.93,37.93,0,0,1,874.64,435.87Z"/><path class="cls-35" d="M884.48,473.71h-.29c-.53-2.11-1.05-4.21-1.58-6.32-.07-.28-.29-.55,0-.79A37.86,37.86,0,0,1,884.48,473.71Z"/><path class="cls-35" d="M827.81,709.13h.28c.6,2.28,1.21,4.55,1.81,6.83-.17-.09-.46-.14-.48-.26C828.92,713.5,828,711.4,827.81,709.13Z"/><path class="cls-12" d="M283.76,720.17c0-.31,0-.66.29-.88-.13,2.56.79,5,1.23,7.42C284,724.72,283.92,722.43,283.76,720.17Z"/><path class="cls-35" d="M854.94,360.48h.28l1.8,6.82c-.16-.08-.45-.14-.48-.25C856.05,364.85,855.15,362.75,854.94,360.48Z"/><path class="cls-35" d="M864.78,398.33h.28l1.8,6.83c-.17-.08-.45-.14-.48-.26C865.89,402.69,865,400.59,864.78,398.33Z"/><path class="cls-35" d="M802.18,610.5h.28l1.8,6.83c-.17-.08-.46-.14-.48-.26C803.29,614.87,802.38,612.77,802.18,610.5Z"/><path class="cls-35" d="M870.74,421.27H871l1.8,6.83c-.16-.09-.45-.15-.48-.26C871.85,425.64,871,423.54,870.74,421.27Z"/><path class="cls-12" d="M564.3,497.85H564a27.16,27.16,0,0,0,.86-5.15,4,4,0,0,1,.31-1.7h.28C565.15,493.29,565.15,495.64,564.3,497.85Z"/><path class="cls-35" d="M812,648.34h.28l1.8,6.83c-.16-.09-.45-.15-.48-.26C813.12,652.71,812.22,650.61,812,648.34Z"/><path class="cls-35" d="M792.34,572.65h.28l1.8,6.83c-.17-.09-.45-.14-.48-.26C793.45,577,792.55,574.92,792.34,572.65Z"/><path class="cls-35" d="M821.85,686.19h.28l1.8,6.83c-.16-.08-.45-.14-.48-.25C823,690.56,822.06,688.46,821.85,686.19Z"/><path class="cls-35" d="M880.58,459.12h.28l1.8,6.83c-.17-.08-.45-.14-.48-.26C881.69,463.49,880.79,461.38,880.58,459.12Z"/><path class="cls-41" d="M810,341.39h.24c1.29,2.35.84,4.62-.31,6.85l.62-3C811,343.9,810.22,342.68,810,341.39Z"/><path class="cls-35" d="M860.9,383.43h.28c.47,2.2,1.33,4.3,1.54,6.55h-.29C862.08,387.76,861.07,385.69,860.9,383.43Z"/><path class="cls-35" d="M818,671.29h.28c.46,2.2,1.32,4.3,1.53,6.56h-.29C819.16,675.62,818.15,673.55,818,671.29Z"/><path class="cls-38" d="M590.24,624.8a43.45,43.45,0,0,1-4.51-4.49A12.68,12.68,0,0,1,590.24,624.8Z"/><path class="cls-38" d="M697.55,637.31c-.69-2.19-1.38-4.37-2.08-6.56,1.39,2,1.66,4.34,2.33,6.56C697.72,637.45,697.64,637.46,697.55,637.31Z"/><path class="cls-12" d="M658.49,421.85c-1-.28-.65-1.25-.79-1.86a41.47,41.47,0,0,0-1.25-4.39c.1-.14.2-.15.3,0C657.8,417.55,657.92,419.76,658.49,421.85Z"/><path class="cls-47" d="M794.15,369.72h.25a8.64,8.64,0,0,1,0,.88c-.05,1.21.49,2.69-.21,3.56s-2.21.13-3.35.35l0-.31c3.26-.07,3.26-.07,3.27-3.31C794.13,370.5,794.14,370.11,794.15,369.72Z"/><path class="cls-45" d="M691.66,624.51a30,30,0,0,1-4.24-4.19A12.15,12.15,0,0,1,691.66,624.51Z"/><path class="cls-38" d="M697.5,576.82h-.24a51.84,51.84,0,0,1-1.79-6C696.67,572.67,696.89,574.81,697.5,576.82Z"/><path class="cls-39" d="M595.88,576.79c-.17-.08-.44-.14-.48-.26-.55-1.89-1.06-3.78-1.58-5.68C595,572.64,595.19,574.81,595.88,576.79Z"/><path class="cls-48" d="M384.27,350.66v.56c-1.91.13-3.83.55-5.69-.25C380.48,350.8,382.4,351.23,384.27,350.66Z"/><path class="cls-39" d="M691.9,564.6a28.45,28.45,0,0,1-3.88-3.88A9.92,9.92,0,0,1,691.9,564.6Z"/><path class="cls-45" d="M590.24,564.6a29.63,29.63,0,0,1-3.88-3.88A9.72,9.72,0,0,1,590.24,564.6Z"/><path class="cls-45" d="M593.82,570.86a36.16,36.16,0,0,1-2.69-5.07A10.87,10.87,0,0,1,593.82,570.86Z"/><path class="cls-49" d="M697.55,637.31h.25a26.39,26.39,0,0,1,.67,5.94.69.69,0,0,1-.3.6C698.31,641.64,697.65,639.5,697.55,637.31Z"/><path class="cls-43" d="M343.18,566.7a25.7,25.7,0,0,1-3.7-3.6A8.8,8.8,0,0,1,343.18,566.7Z"/><path class="cls-43" d="M282,349.15a21,21,0,0,1-3.59-3.65A9.2,9.2,0,0,1,282,349.15Z"/><path class="cls-30" d="M590.79,727.32a23.93,23.93,0,0,1,2.44-4.78A10.75,10.75,0,0,1,590.79,727.32Z"/><path class="cls-38" d="M296.32,405.1c-.15,0-.29,0-.32-.18.18-.79.42-1.58.53-2.39.19-1.4.85-1.84,2.16-1.23C296.26,401.55,296.85,403.67,296.32,405.1Z"/><path class="cls-38" d="M336.62,688.28a10.39,10.39,0,0,1-2.75-4.23A16.81,16.81,0,0,1,336.62,688.28Z"/><path class="cls-26" d="M812.33,516.63a12.43,12.43,0,0,1-2.09-4.48A12.85,12.85,0,0,1,812.33,516.63Z"/><path class="cls-50" d="M293,497a11.08,11.08,0,0,1-2.7-4A12.69,12.69,0,0,1,293,497Z"/><path class="cls-38" d="M358.62,721.09a11.2,11.2,0,0,1-2.7-4A12.69,12.69,0,0,1,358.62,721.09Z"/><path class="cls-39" d="M353,712.75a12.92,12.92,0,0,1-2.76-3.94A10.67,10.67,0,0,1,353,712.75Z"/><path class="cls-51" d="M439.71,497.89l-.35-.36c.82-.76,1.42-1.83,2.68-2A15.29,15.29,0,0,1,439.71,497.89Z"/><path class="cls-25" d="M851.08,345.28h-.27c-.33-1.55.58-2.95.56-4.46l.3-.3c.48.62,0,1.18-.15,1.74A10.66,10.66,0,0,0,851.08,345.28Z"/><path class="cls-45" d="M655.83,413.22a11.59,11.59,0,0,1-1.8-3.58A6.73,6.73,0,0,1,655.83,413.22Z"/><path class="cls-45" d="M273.72,468.06a6.79,6.79,0,0,1-2.16-3.33A10.06,10.06,0,0,1,273.72,468.06Z"/><path class="cls-25" d="M695.48,570.86a11.49,11.49,0,0,1-1.8-3.58A6.62,6.62,0,0,1,695.48,570.86Z"/><path class="cls-38" d="M398.85,340.86v.25a13.23,13.23,0,0,1-3.64-.62C396.5,339.85,397.62,340.93,398.85,340.86Z"/><path class="cls-38" d="M366.37,732.42a6.79,6.79,0,0,1-2.1-3.09A7.64,7.64,0,0,1,366.37,732.42Z"/><path class="cls-38" d="M362.5,726.75a6.65,6.65,0,0,1-2.11-3.08A7.7,7.7,0,0,1,362.5,726.75Z"/><path class="cls-38" d="M302.58,511a8,8,0,0,1-2.16-3.05A6.33,6.33,0,0,1,302.58,511Z"/><path class="cls-38" d="M896.1,509.47a5,5,0,0,1-2.09-3A10.49,10.49,0,0,1,896.1,509.47Z"/><path class="cls-38" d="M298.11,504.45a6.65,6.65,0,0,1-2.11-3.08A7.56,7.56,0,0,1,298.11,504.45Z"/><path class="cls-17" d="M593.2,592l.39,0c-.3,1.59.26,3.23-.29,4.8l-.1-.08A5.71,5.71,0,0,1,593.2,592Z"/><path class="cls-43" d="M688.91,731.86c.27-1.19,1.25-1.77,2.09-2.47A5.65,5.65,0,0,1,688.91,731.86Z"/><path class="cls-40" d="M587.25,731.81a5.21,5.21,0,0,1,2.1-2.42A5.11,5.11,0,0,1,587.25,731.81Z"/><path class="cls-49" d="M272.16,342a17.53,17.53,0,0,1-3.58-.89c-.1-.06-.13-.12-.1-.18s.06-.1.09-.1C269.77,341.22,271.13,341.11,272.16,342Z"/><path class="cls-43" d="M346.11,644.17h.33a5.35,5.35,0,0,1-1.54,3C345,646.05,345.9,645.24,346.11,644.17Z"/><path class="cls-38" d="M334.19,353a7.82,7.82,0,0,1-2.73,1.85A4.5,4.5,0,0,1,334.19,353Z"/><path class="cls-45" d="M594.16,631.33l-.32,0c-.41-1-.81-2-1.22-3A5.41,5.41,0,0,1,594.16,631.33Z"/><path class="cls-45" d="M654,409.65a6.6,6.6,0,0,1-1.79-2.69A4.75,4.75,0,0,1,654,409.65Z"/><path class="cls-52" d="M306.45,734.18l-.61.58-.26-.29,1.1-1.9.34.39Z"/><path class="cls-30" d="M471.64,341.09l.25,0a4.12,4.12,0,0,1,1.49,2.45A10.4,10.4,0,0,1,471.64,341.09Z"/><path class="cls-25" d="M809.65,502.92h-.28c.52-.94.15-2.22,1.16-3A14,14,0,0,1,809.65,502.92Z"/><path class="cls-53" d="M241.75,734.47c-.27.1-.31.32-.26.57l-.62-.28,1.15-1.84.32.35Z"/><path class="cls-54" d="M245.31,516.59a.94.94,0,0,0-.5.89l-.64-.25,1.13-1.84.35.36Z"/><path class="cls-12" d="M786.17,345.58a6.9,6.9,0,0,1-2.2-2.1A3.73,3.73,0,0,1,786.17,345.58Z"/><path class="cls-26" d="M565.49,341.11a4,4,0,0,1,1.5,2.45A4.83,4.83,0,0,1,565.49,341.11Z"/><path class="cls-26" d="M322.24,665.92c-.64-.67-1.51-1.23-1.2-2.38C321.34,664.39,322.16,665,322.24,665.92Z"/><path class="cls-26" d="M649.87,344.42a4.26,4.26,0,0,1-2.1-1.83A3.82,3.82,0,0,1,649.87,344.42Z"/><path class="cls-42" d="M277.31,344.69a5.25,5.25,0,0,1-2.5-1.51A4.07,4.07,0,0,1,277.31,344.69Z"/><path class="cls-26" d="M263.58,452.27a3.8,3.8,0,0,1-1.56-2.4A5.15,5.15,0,0,1,263.58,452.27Z"/><path class="cls-25" d="M326.78,673.08a3.77,3.77,0,0,1-1.57-2.44A5.48,5.48,0,0,1,326.78,673.08Z"/><path class="cls-26" d="M269.84,462.1a3.72,3.72,0,0,1-1.56-2.44A5.63,5.63,0,0,1,269.84,462.1Z"/><path class="cls-45" d="M328.87,676.36a3.77,3.77,0,0,1-1.57-2.44A5.57,5.57,0,0,1,328.87,676.36Z"/><path class="cls-55" d="M280.5,433.87c.18-1.07,1-1.59,1.8-2.17C282,432.71,281.2,433.23,280.5,433.87Z"/><path class="cls-26" d="M496,734.46a4.11,4.11,0,0,1-1.5-2.43A4.63,4.63,0,0,1,496,734.46Z"/><path class="cls-26" d="M267.16,457.93a3.77,3.77,0,0,1-1.57-2.44A5.57,5.57,0,0,1,267.16,457.93Z"/><path class="cls-45" d="M241.74,558.64a4,4,0,0,1,1.5,2.46A5,5,0,0,1,241.74,558.64Z"/><path class="cls-45" d="M492.78,564.06l0-.36a6.41,6.41,0,0,1,1.51-2.13A5,5,0,0,1,492.78,564.06Z"/><path class="cls-26" d="M331.55,680.53a3.77,3.77,0,0,1-1.57-2.44A5.62,5.62,0,0,1,331.55,680.53Z"/><path class="cls-26" d="M585.48,620.06a3.69,3.69,0,0,1-2.1-1.53A3.57,3.57,0,0,1,585.48,620.06Z"/><path class="cls-38" d="M305.86,515.77a4.24,4.24,0,0,1-1.57-2.15A3.5,3.5,0,0,1,305.86,515.77Z"/><path class="cls-38" d="M517.79,344.76a3.51,3.51,0,0,1,1.51-2.19A4.16,4.16,0,0,1,517.79,344.76Z"/><path class="cls-25" d="M447.68,559l.35,0a9,9,0,0,1,1.26,2.11A4,4,0,0,1,447.68,559Z"/><path class="cls-38" d="M695.48,630.76a5.2,5.2,0,0,1-1.2-2.4A3.3,3.3,0,0,1,695.48,630.76Z"/><path class="cls-49" d="M325.23,359.51a3,3,0,0,1-1.82,1.6A3.44,3.44,0,0,1,325.23,359.51Z"/><path class="cls-42" d="M654.65,506.5H655a3.66,3.66,0,0,1-1.23,2.08A7.1,7.1,0,0,1,654.65,506.5Z"/><path class="cls-45" d="M284.39,484.19a2.22,2.22,0,0,1-1.19-1.88A3.35,3.35,0,0,1,284.39,484.19Z"/><path class="cls-56" d="M656.75,415.59h-.3a10.27,10.27,0,0,1-.63-2.39A4.08,4.08,0,0,1,656.75,415.59Z"/><path class="cls-26" d="M224.77,511h.33a3.43,3.43,0,0,1,1.16,1.84C225.51,512.39,225.24,511.6,224.77,511Z"/><path class="cls-51" d="M471.67,517.48c-.41.07-.37-.38-.59-.53l.8-1.23.29.3C472.18,516.57,471.52,516.89,471.67,517.48Z"/><path class="cls-27" d="M650.16,513.5c-.23-1,.75-1.17,1.21-1.69C651.28,512.59,650.63,513,650.16,513.5Z"/><path class="cls-49" d="M652.54,510.37a2.86,2.86,0,0,1,1.2-1.79A2.35,2.35,0,0,1,652.54,510.37Z"/><path class="cls-55" d="M282.29,431.7a2.82,2.82,0,0,1,1.2-1.79A2.32,2.32,0,0,1,282.29,431.7Z"/><path class="cls-43" d="M416.45,346.77a3,3,0,0,1-2.1-.9A3,3,0,0,1,416.45,346.77Z"/><path class="cls-55" d="M343.7,648.94a2.83,2.83,0,0,1,1.2-1.79A2.35,2.35,0,0,1,343.7,648.94Z"/><path class="cls-57" d="M556.56,513.5c-.24-1,.74-1.17,1.2-1.69C557.67,512.59,557,513,556.56,513.5Z"/><path class="cls-58" d="M268.57,340.83a2.62,2.62,0,0,1,0,.28,5.29,5.29,0,0,1-2.09-.32,1.69,1.69,0,0,0,0-.23Z"/><path class="cls-2" d="M659.14,489.51c0-.81-.29-1.65.24-2.41C659.31,487.91,659.64,488.75,659.14,489.51Z"/><path class="cls-16" d="M286.24,728.51a1.8,1.8,0,0,1-1-1.81A4.1,4.1,0,0,1,286.24,728.51Z"/><path class="cls-42" d="M654.61,342a2.63,2.63,0,0,1,1.57,1.26A2.07,2.07,0,0,1,654.61,342Z"/><path class="cls-26" d="M783.72,343.23a2.32,2.32,0,0,1-1.53-1.24A2.1,2.1,0,0,1,783.72,343.23Z"/><path class="cls-42" d="M656.4,343.44c.6.24,1.29.4,1.2,1.28C657.16,344.33,656.61,344,656.4,343.44Z"/><path class="cls-59" d="M555.4,515.18l-.4-.4c.28-.47.58-.9,1.23-.8A2.4,2.4,0,0,1,555.4,515.18Z"/><path class="cls-42" d="M686.82,560.11c-.5-.39-1.18-.55-1.49-1.18a2.08,2.08,0,0,1,1.51.86C687,559.9,687,560,686.82,560.11Z"/><path class="cls-25" d="M835.3,727.65c-.57-.4-1.16-.79-1.21-1.59C834.64,726.48,835.21,726.88,835.3,727.65Z"/><path class="cls-60" d="M391.12,348l-.92-.57c1,.26.86-.68,1.2-1.11C391.35,346.87,391.64,347.49,391.12,348Z"/><path class="cls-42" d="M787.6,347.41c-.57-.41-1.16-.8-1.21-1.6A2.41,2.41,0,0,1,787.6,347.41Z"/><path class="cls-42" d="M652.25,407a2.22,2.22,0,0,1-1.24-1.51A2.11,2.11,0,0,1,652.25,407Z"/><path class="cls-26" d="M648.68,403.12a2.29,2.29,0,0,1-1.53-1.23A2.13,2.13,0,0,1,648.68,403.12Z"/><path class="cls-42" d="M692.78,566.1a2.76,2.76,0,0,1-.89-1.51,1.53,1.53,0,0,1,.91,1.16c.08.08.11.16.08.23S692.81,566.1,692.78,566.1Z"/><path class="cls-43" d="M324.69,669.8a1.72,1.72,0,0,1-1-1.54A2.43,2.43,0,0,1,324.69,669.8Z"/><path class="cls-56" d="M585.18,559.83a1.79,1.79,0,0,1-1.5-.9A1.9,1.9,0,0,1,585.18,559.83Z"/><path class="cls-42" d="M692.78,566.1c0-.12,0-.24,0-.35a2.08,2.08,0,0,1,.89,1.53C693.14,567.07,693,566.53,692.78,566.1Z"/><path class="cls-49" d="M425.14,351.24a1.88,1.88,0,0,1-1.56-.9A2.07,2.07,0,0,1,425.14,351.24Z"/><path class="cls-42" d="M260.6,447.5c-.56-.34-1.08-.7-.68-1.48C260.15,446.51,260.37,447,260.6,447.5Z"/><path class="cls-47" d="M658.8,367h.27c0,.49,0,1,.07,1.48a.45.45,0,0,1-.06.59h-.26C658.81,368.42,658.81,367.73,658.8,367Z"/><path class="cls-43" d="M323.2,667.42a1.7,1.7,0,0,1-1-1.51A2.2,2.2,0,0,1,323.2,667.42Z"/><path class="cls-49" d="M262,449.87a1.77,1.77,0,0,1-.91-1.53A2.08,2.08,0,0,1,262,449.87Z"/><path class="cls-43" d="M745.92,512.16a1.71,1.71,0,0,1-1-1.55A2.52,2.52,0,0,1,745.92,512.16Z"/><path class="cls-44" d="M345.58,570.27c-.72-.27-.88-.89-1-1.56A2.62,2.62,0,0,1,345.58,570.27Z"/><path class="cls-42" d="M265.07,454.65a1.72,1.72,0,0,1-1-1.54A2.43,2.43,0,0,1,265.07,454.65Z"/><path class="cls-56" d="M336.55,351.53a1.8,1.8,0,0,1-1.54.9A2.05,2.05,0,0,1,336.55,351.53Z"/><path class="cls-56" d="M338.08,350.63a1.92,1.92,0,0,1-1.54.9A1.92,1.92,0,0,1,338.08,350.63Z"/><path class="cls-16" d="M789.69,350.69a2,2,0,0,1-.92-1.59A2.1,2.1,0,0,1,789.69,350.69Z"/><path class="cls-43" d="M694.28,628.37a1.79,1.79,0,0,1-.9-1.54A2.06,2.06,0,0,1,694.28,628.37Z"/><path class="cls-43" d="M592.63,628.37a1.84,1.84,0,0,1-.91-1.54A2,2,0,0,1,592.63,628.37Z"/><path class="cls-43" d="M228.94,516.59l0,.34a2.72,2.72,0,0,1-.89-1.55A1.69,1.69,0,0,1,228.94,516.59Z"/><path class="cls-61" d="M273.73,342.6a1.73,1.73,0,0,1-1.58-.61A2,2,0,0,1,273.73,342.6Z"/><path class="cls-43" d="M686.82,560.11c0-.11,0-.21,0-.32a1.62,1.62,0,0,1,1.18.94C687.49,560.77,687.23,560.31,686.82,560.11Z"/><path class="cls-56" d="M591.14,565.79a1.35,1.35,0,0,1-.9-1.2A1.47,1.47,0,0,1,591.14,565.79Z"/><path class="cls-56" d="M647.78,342.59a1.47,1.47,0,0,1-1.23-.9A1.39,1.39,0,0,1,647.78,342.59Z"/><path class="cls-16" d="M686.23,619.43a1.39,1.39,0,0,1-1.2-.9A1.39,1.39,0,0,1,686.23,619.43Z"/><path class="cls-56" d="M326.72,358.32a1.35,1.35,0,0,1-1.26,1A1.93,1.93,0,0,1,326.72,358.32Z"/><path class="cls-43" d="M328.2,357.19a1.4,1.4,0,0,1-1.25.91A1.6,1.6,0,0,1,328.2,357.19Z"/><path class="cls-15" d="M342.8,650.19a1.38,1.38,0,0,1,.91-1.26A1.64,1.64,0,0,1,342.8,650.19Z"/><path class="cls-55" d="M329.39,356.3a1.39,1.39,0,0,1-1.2.9A1.39,1.39,0,0,1,329.39,356.3Z"/><path class="cls-43" d="M586.37,560.73a1.38,1.38,0,0,1-1.2-.9A1.43,1.43,0,0,1,586.37,560.73Z"/><path class="cls-26" d="M692.8,626a1.46,1.46,0,0,1-.91-1.29A1.64,1.64,0,0,1,692.8,626Z"/><path class="cls-56" d="M591.15,626a1.49,1.49,0,0,1-.91-1.24A1.47,1.47,0,0,1,591.15,626Z"/><path class="cls-56" d="M691,729.4a1.36,1.36,0,0,1,.9-1.2A1.44,1.44,0,0,1,691,729.4Z"/><path class="cls-56" d="M687.43,620.32a1.4,1.4,0,0,1-1.2-.89A1.38,1.38,0,0,1,687.43,620.32Z"/><path class="cls-56" d="M651.6,511.58a1.54,1.54,0,0,1,.95-1.21A1.39,1.39,0,0,1,651.6,511.58Z"/><path class="cls-44" d="M283,350.35a1.36,1.36,0,0,1-1-1.2A1.62,1.62,0,0,1,283,350.35Z"/><path class="cls-56" d="M558,511.58a1.77,1.77,0,0,1,1-1.26A1.41,1.41,0,0,1,558,511.58Z"/><path class="cls-2" d="M659.08,369.11l.06-.59c.46.56.19,1.2.24,1.81C659,370,659.15,369.52,659.08,369.11Z"/><path class="cls-62" d="M704.07,726.62l.37.4a2,2,0,0,1-.94,1A1.82,1.82,0,0,1,704.07,726.62Z"/><path class="cls-56" d="M330.63,355.39a1.51,1.51,0,0,1-1.25.91A1.48,1.48,0,0,1,330.63,355.39Z"/><path class="cls-56" d="M589.34,729.4a1.57,1.57,0,0,1,.91-1.25A1.42,1.42,0,0,1,589.34,729.4Z"/><path class="cls-63" d="M649,515.16l-.34-.33a1,1,0,0,1,.93-.62Z"/><path class="cls-64" d="M340.88,652.53a.76.76,0,0,1,.42-.94.21.21,0,0,1,.34,0C341.43,652,341.41,652.45,340.88,652.53Z"/><path class="cls-65" d="M341.64,651.62l-.34,0a1.73,1.73,0,0,1,1-.88A1.24,1.24,0,0,1,341.64,651.62Z"/><path class="cls-66" d="M490.34,722.83h-.25c0-.5,0-1,0-1.5C490.53,721.77,490.35,722.31,490.34,722.83Z"/><path class="cls-56" d="M655.3,352.14c-.37-.32-.9-.6-.38-1.2C655.05,351.34,655.17,351.74,655.3,352.14Z"/><path class="cls-3" d="M301.85,429.76a79.45,79.45,0,0,1,2.71-21.51c.14-.53.09-1.13.95-1,3.15.6,5.88-.52,8.36-2.27a22.49,22.49,0,0,0,9.19-14.75c.76-3.94.7-7.89-1.86-11.23-1-1.32-.87-1.95.12-3.11a80.28,80.28,0,0,1,43.25-26.43c.51-.13,1.17-.48,1.47.41,1.26,3.72,4,6,7.54,7.3,7.53,2.89,14.75,2.43,21.4-2.47a8.92,8.92,0,0,0,3.21-4.39c.3-.91.74-1.09,1.59-.89a80.07,80.07,0,0,1,29.81,13.84,84.5,84.5,0,0,1,13.17,12.26c.63.72.72,1.17,0,2-2.46,2.9-2.84,6.44-2.39,10a22.83,22.83,0,0,0,9.42,16.24c2.54,1.83,5.37,3,8.63,2.35.79-.16.85.28,1,.86A78.34,78.34,0,0,1,462.35,423,84.74,84.74,0,0,1,460,450.28c-.27,1.07-.54,1.61-1.91,1.47-3.89-.39-7,1.45-9.71,4A23,23,0,0,0,441,473a11,11,0,0,0,2.86,7.92c.73.75.15,1.13-.24,1.6a80.54,80.54,0,0,1-33.2,23.87,77.09,77.09,0,0,1-10.92,3.29c-.44.1-.81.32-1.05-.35-1.68-4.73-5.46-7.08-10-8.27-6.62-1.74-13-1.13-18.69,3a9.84,9.84,0,0,0-3.61,4.8c-.27.77-.51,1-1.37.77a80,80,0,0,1-43.39-26.45c-.28-.33-.67-.6-.21-1.12,3.61-4.13,3.42-8.94,2.16-13.77A22.16,22.16,0,0,0,314,455a11.1,11.1,0,0,0-7.88-2c-.93.13-1.06-.23-1.26-.94A80,80,0,0,1,301.85,429.76Z"/><path class="cls-62" d="M321.35,365l-.34-.34,1.89-1.58.24.25Z"/><path class="cls-67" d="M324.55,362.06c-.18.36-.37.56-.68.61,0,0-.12-.17-.1-.22C323.89,362.16,324.12,362.05,324.55,362.06Z"/><path class="cls-68" d="M457.61,637.92q0-31.44,0-62.87a24.62,24.62,0,0,0-2.73-11.89c-.45-.84-.56-1.28.71-1.28q16.39.06,32.79,0c1.1,0,1.32.24.78,1.22a26.69,26.69,0,0,0-3,13.13q0,70.92,0,141.84a24,24,0,0,0,2.85,12c.55,1,.59,1.4-.81,1.4q-52.62,0-105.23,0c-.38,0-.87.18-1.12-.15s.12-.86.33-1.2a21.39,21.39,0,0,0,2.81-10.18c.18-3.52,0-7,0-10.57q0-67.27,0-134.54a23.09,23.09,0,0,0-3-11.93c-.53-.9-.06-1,.67-1h32.49c1.82,0,1.94.13,1.1,1.66a22.44,22.44,0,0,0-2.58,11q0,64.51,0,129c0,1.1.25,1.39,1.38,1.39q20.49-.07,41,0c1.22,0,1.55-.26,1.54-1.52Q457.58,670.71,457.61,637.92Z"/><path class="cls-68" d="M250.34,436.94c2.19,4.22,4.53,8.09,6.9,11.93,8.61,13.94,17.62,27.6,26.8,41.16q7.69,11.34,15.36,22.7c.21.32.67.57.38,1s-.64.15-1,.15c-15.29-.39-30.59-.15-45.89-.19-1.27,0-1.28-.39-.78-1.36a35.67,35.67,0,0,0,3-10,6,6,0,0,0-1-4.3c-4.26-7.39-8.47-14.8-12.71-22.19q-8.06-14.07-16.13-28.12c-2-3.46-3.92-6.93-5.89-10.42-.56.31-.33.76-.33,1.09q0,31.44,0,62.88a22.56,22.56,0,0,0,2.69,11.05c.53,1,.47,1.33-.79,1.32q-16.32,0-32.64,0c-1.37,0-1.23-.5-.72-1.35a20.8,20.8,0,0,0,2.81-10.85q.07-72.48,0-145A22.76,22.76,0,0,0,187.88,346c-.8-1.53-.71-1.67,1-1.67,25.59,0,51.18,0,76.77,0,5.81,0,10.41,2.8,13.91,7.38A18.1,18.1,0,0,1,283.23,363c0,18.38,0,36.75,0,55.13a18.63,18.63,0,0,1-15.09,18.53,17.48,17.48,0,0,1-3.55.27C259.91,437,255.24,436.94,250.34,436.94Z"/><path class="cls-68" d="M311.45,654.55c5.61,10.18,11.73,19.72,18,29.19,4.22,6.4,8.4,12.83,12.66,19.2,5.87,8.78,11.81,17.52,17.72,26.27.45.67,1.5,1.28,1,2.06-.34.58-1.47.18-2.24.17-14.75-.3-29.49-.21-44.24-.22-1.64,0-1.63,0-.92-1.48a34.12,34.12,0,0,0,2.9-10.72,3.44,3.44,0,0,0-.49-2.23c-4.34-7.58-8.64-15.17-13-22.76q-5.06-8.87-10.13-17.73L280.7,655.2c-.06-.11-.22-.16-.52-.37v1.71q0,30.62,0,61.23c0,4.32.58,8.51,2.85,12.32.38.63.34,1.15-.73,1.15q-16.4,0-32.79,0c-1,0-1.18-.43-.77-1.14,2.71-4.74,2.86-9.91,2.85-15.17q0-70.09,0-140.19A24.57,24.57,0,0,0,249,563.39c-.69-1.34-.59-1.5.86-1.5q38.22,0,76.45,0a18.43,18.43,0,0,1,18.06,18q.06,28.23,0,56.46a18.52,18.52,0,0,1-16.14,18,32.94,32.94,0,0,1-3.71.2Z"/><path class="cls-68" d="M608.12,513.68H573.39c-1.11,0-1.69.09-.86-1.37a21.43,21.43,0,0,0,2.74-10.73q.06-72.7,0-145.41A22.07,22.07,0,0,0,572.73,346c-.78-1.49-.67-1.66,1-1.66q34.59,0,69.16,0c2.65,0,4,1.94,5.44,3.59,4.91,5.62,6.5,12.48,7,19.7.06,1,.75,2.23,0,2.8s-1.9.19-2.89.19q-23.48,0-47,0c-1.25,0-1.54.31-1.53,1.54q.07,15.27,0,30.55c0,1.13.3,1.37,1.39,1.37,12.08-.05,24.15,0,36.22-.09a7.16,7.16,0,0,1,5.33,2.24A26,26,0,0,1,654,419a73.61,73.61,0,0,1,1.49,10.22c.13,1.18-.43,1.23-1.36,1.22-16.19,0-32.39,0-48.59-.05-1.37,0-1.67.36-1.67,1.7q.07,26.82,0,53.63c0,1.42.43,1.66,1.73,1.66,16.1,0,32.19,0,48.29-.07,1.48,0,1.69.47,1.56,1.76-.45,4.5-1,9-2.6,13.25a24.48,24.48,0,0,1-8.29,11,2.76,2.76,0,0,1-1.86.29Z"/><path class="cls-68" d="M614.65,610.69c0-10.23-.16-20.47.07-30.69a40.34,40.34,0,0,0-2.24-13.55c-.38-1.16-.72-2.33-1.05-3.51-.18-.67-.08-1.18.84-1a7.21,7.21,0,0,0,1,0c22.5,0,45,.07,67.51-.08,3.38,0,5.49,1.71,7.36,3.84,4.57,5.17,6,11.56,6.43,18.26.06.89.11,1.78.25,2.65.19,1.26-.19,1.65-1.56,1.65-11.92-.07-23.84,0-35.77,0-4.32,0-8.64,0-13,0-1,0-1.32.27-1.32,1.31q.06,15.49,0,31c0,1.18.38,1.35,1.42,1.34,11.83,0,23.65.1,35.47-.1a8.83,8.83,0,0,1,6.86,2.87,26.1,26.1,0,0,1,7.26,14.21,41.16,41.16,0,0,1,.62,7.36c0,19.36.1,38.73-.08,58.1a43.62,43.62,0,0,1-4.73,20.12,16.63,16.63,0,0,1-5.65,6.42,3.83,3.83,0,0,1-2.17.69q-34.72,0-69.45,0c-1.65,0-1.65,0-1.12-1.63.37-1.16.67-2.36,1.15-3.48,1.53-3.56,1.78-7.31,1.8-11.1,0-2.93.09-5.87,0-8.79,0-1.29.39-1.51,1.58-1.51,17,0,34,0,51,.06,1.4,0,1.8-.27,1.79-1.74q-.09-26.75,0-53.48c0-1.5-.42-1.74-1.8-1.74-17,.05-34,0-51,.06-1.21,0-1.57-.24-1.56-1.51C614.67,634.62,614.65,622.65,614.65,610.69Z"/><path class="cls-68" d="M513,610.64c0-10.18-.12-20.36.06-30.54a36.28,36.28,0,0,0-2-12.85c-.47-1.34-.85-2.71-1.25-4.07-.25-.85-.15-1.32,1-1.3,4.57.07,9.14,0,13.71,0,18.19,0,36.37.08,54.55-.08,3.49,0,5.58,1.79,7.55,4,4.55,5.18,5.94,11.51,6.34,18.18.08,1.32.8,3,0,3.86s-2.62.28-4,.28q-22.87,0-45.76,0c-1.42,0-1.66.43-1.66,1.73q.07,15.27,0,30.54c0,1.11.27,1.39,1.39,1.39,11.87,0,23.75.08,35.62-.11a8.54,8.54,0,0,1,6.61,2.76,26.14,26.14,0,0,1,7.43,14.6,58.24,58.24,0,0,1,.57,9.6c0,18.48.12,37-.07,55.43-.08,7.23-1.42,14.32-5,20.78a17.11,17.11,0,0,1-5.82,6.25,2.85,2.85,0,0,1-1.55.34q-34.95,0-69.91,0c-1.24,0-1.3-.51-1-1.4.65-2,1.22-4.08,2-6A17.76,17.76,0,0,0,513,717.3c.07-3.58.09-7.15,0-10.73,0-1.27.26-1.63,1.6-1.63,17,0,34.09,0,51.13.07,1.34,0,1.6-.35,1.6-1.63q-.07-26.89,0-53.79c0-1.23-.27-1.55-1.53-1.55-17,.05-34.08,0-51.12.07-1.4,0-1.67-.39-1.67-1.71C513,634.48,513,622.56,513,610.64Z"/><path class="cls-68" d="M854.86,513.6a19.31,19.31,0,0,0,1.31-7.4c-.13-3.48-1.24-6.73-2.09-10.05-2.75-10.63-5.56-21.26-8.28-31.9-.21-.83-.48-1-1.23-1q-13.64,0-27.27,0a1.21,1.21,0,0,0-1.41,1.07c-2.78,10.89-5.55,21.77-8.39,32.64a72.2,72.2,0,0,0-1.82,8,15.8,15.8,0,0,0,.8,7.39c.37,1.1.18,1.35-1,1.34-12.37,0-24.74,0-37.11,0-.36,0-.83.22-1.08-.2s0-.54.23-.78c3.84-4.19,5.83-9.27,7.18-14.7,2-8.29,4.26-16.55,6.4-24.83q5.63-21.76,11.24-43.54c3.19-12.29,6.43-24.56,9.62-36.85,2.77-10.68,5.45-21.38,8.29-32,1.33-5,2.71-10,3.9-15a1.55,1.55,0,0,1,1.82-1.38q14.9.09,29.8,0c1.09,0,1.43.39,1.66,1.31,3.46,13.27,7,26.53,10.4,39.8,3.83,14.79,7.58,29.6,11.41,44.39,3.4,13.09,6.88,26.15,10.3,39.22,1.85,7.09,3.58,14.2,5.48,21.27,1.16,4.33,2,8.74,3.53,13a27,27,0,0,0,4.91,8.57c.22.26.39.56.58.83.46.65.36,1-.49,1H855.9C855.6,513.67,855.31,513.63,854.86,513.6Z"/><path class="cls-68" d="M813.55,731.46c-6.16,0-12.32,0-18.48,0-1.13,0-1.46-.12-1-1.38,1.64-4.4.82-8.76-.33-13.15q-4.51-17.09-8.84-34.23a2.09,2.09,0,0,0-2.48-1.89c-8.64.09-17.28.06-25.93,0-1,0-1.48.2-1.77,1.35-3.16,12.36-6.41,24.7-9.63,37a17.72,17.72,0,0,0,.29,11c.39,1,.11,1.25-.92,1.25q-18.71,0-37.41,0c-.36,0-.83.22-1.08-.2s.09-.64.33-.89c3.76-3.93,5.73-8.74,7.05-13.92,2.8-11,5.67-22,8.51-33q5-19.31,10-38.62c3.42-13.1,6.9-26.18,10.31-39.28,3.15-12.12,6.23-24.25,9.36-36.37.56-2.17,1.24-4.31,1.71-6.49.17-.76.47-.82,1.07-.82H785c.68,0,.94.13,1.14.91,2.31,9.11,4.71,18.19,7.08,27.29q3,11.45,6,22.89,3.72,14.35,7.45,28.7,4.13,15.75,8.25,31.5c2.55,9.8,5,19.62,7.57,29.42,1.48,5.76,2.85,11.55,4.54,17.24a26.07,26.07,0,0,0,5.87,10.31c.28.3.81.57.53,1.09s-.72.2-1.08.2Z"/><path class="cls-68" d="M739,436.86q0,31.14,0,62.28c0,4.73.63,9.3,3,13.49.56,1,.17,1-.67,1q-16.47,0-32.94,0c-1,0-1.28-.35-.8-1.18,2.62-4.59,2.89-9.59,2.88-14.71q-.06-62.71,0-125.44c0-1.41-.29-1.8-1.75-1.79-11,.07-22.06,0-33.09.07-1.33,0-1.77-.26-1.66-1.68a26.85,26.85,0,0,0-5.22-18.51,49.44,49.44,0,0,0-4.53-5.05c-.3-.31-.85-.55-.62-1.07s.79-.25,1.19-.25c13.07,0,26.13-.05,39.2.11,24.48.31,49,.06,73.46.1a5.85,5.85,0,0,1,4.14,1.74c4.57,4.12,6.83,9.43,8,15.32.51,2.47.67,5,1,7.48.16,1.39-.17,1.83-1.68,1.82-16.1-.06-32.2,0-48.29-.07-1.33,0-1.61.33-1.61,1.62Q739.08,404.53,739,436.86Z"/><path class="cls-68" d="M514.44,513.7H479.86c-1.64,0-1.58,0-.86-1.41a25.11,25.11,0,0,0,2.66-11.38q0-52.08,0-104.14,0-19.66,0-39.34a25.17,25.17,0,0,0-2.59-11.53c-.71-1.39-.59-1.56,1-1.56,10.68,0,21.36,0,32.05,0,1.25,0,1.51.25.88,1.35a22.3,22.3,0,0,0-2.67,11.38q0,64.44,0,128.88c0,1.33.44,1.48,1.59,1.48,16.15,0,32.3,0,48.44-.06,1.5,0,1.6.44,1.5,1.77a48.26,48.26,0,0,1-2.5,13,24.36,24.36,0,0,1-8.29,11.2,3,3,0,0,1-2,.36Z"/><path class="cls-3" d="M593.2,592v4.75q-23.38,0-46.75,0c-.89,0-1.25-.2-1.19-1.15.08-1.18,0-2.38,0-3.57A6.06,6.06,0,0,1,546,592Z"/><path class="cls-69" d="M358.33,365.19a22.5,22.5,0,1,1-22.51,22.41A22.5,22.5,0,0,1,358.33,365.19Z"/><path class="cls-2" d="M407,407.27a19.8,19.8,0,0,1,.13-39.6c10.82,0,19.37,8.91,19.34,20.09A19.59,19.59,0,0,1,407,407.27Z"/><path class="cls-2" d="M432.47,447.81A19.81,19.81,0,1,1,451.87,428,19.66,19.66,0,0,1,432.47,447.81Z"/><path class="cls-2" d="M387.28,471.92a19.78,19.78,0,0,1,19.39-19.83c10.62-.08,19.53,9,19.54,19.84a19.79,19.79,0,0,1-19.48,19.89C396.06,491.83,387.28,482.84,387.28,471.92Z"/><path class="cls-2" d="M314.84,429c0-10.92,8.83-19.92,19.47-19.87A19.84,19.84,0,0,1,353.76,429c0,10.87-8.8,19.92-19.46,19.94A19.73,19.73,0,0,1,314.84,429Z"/><path class="cls-2" d="M356.31,490.06a19.8,19.8,0,1,1,19.49-19.84A19.55,19.55,0,0,1,356.31,490.06Z"/><path class="cls-2" d="M387.56,429.59a5.84,5.84,0,1,1-5.82-6A5.85,5.85,0,0,1,387.56,429.59Z"/><path class="cls-2" d="M234.51,375.94c4.47,0,8.94.09,13.41,0,3.73-.09,7.76,2.38,7.54,7.48-.21,4.91-.14,9.83,0,14.75a6.79,6.79,0,0,1-7,7.09l-25.18-.12A11.82,11.82,0,0,1,222,405c-.93-.1-2.17.44-2.7-.19s-.2-2-.2-3c0-8,0-16.08-.05-24.13,0-1.5.43-1.75,1.8-1.72C225.37,376,229.94,375.94,234.51,375.94Z"/><path class="cls-2" d="M295.55,593.52c4.62,0,9.24,0,13.85,0,3.62,0,7.37,2.53,7.19,7.19-.21,5.15,0,10.32,0,15.48a6.23,6.23,0,0,1-6.1,6.58c-4.54.16-9.1,0-13.65,0-5.12,0-10.23-.08-15.34,0-1.07,0-1.3-.32-1.3-1.33q.06-13.33,0-26.66c0-1,.3-1.22,1.25-1.21C286.12,593.54,290.83,593.52,295.55,593.52Z"/><path class="cls-2" d="M823.33,435.83l7.41-28.51.28,0q3.54,13.65,7.07,27.29c.14.51.64,1.19-.5,1.19Z"/><path class="cls-2" d="M762.2,653.41l7.35-28.29.3,0c.69,2.69,1.39,5.38,2.08,8.07q2.49,9.62,5,19.22c.16.57.5,1-.48,1Z"/><path class="cls-70" d="M358.25,402.49a14.68,14.68,0,0,1-14.77-14.9,14.85,14.85,0,1,1,29.69.16A14.75,14.75,0,0,1,358.25,402.49Z"/><path class="cls-71" d="M390.8,387.18c-.42-8.5,7.07-16.47,16.25-16.3a16.44,16.44,0,0,1-.87,32.86C397.79,403.49,390.29,395.85,390.8,387.18Z"/><path class="cls-71" d="M448.34,427.92c.53,8.67-7.71,16.59-16.12,16.43a16.67,16.67,0,0,1-15.83-16.8c.21-8.57,7.14-16.12,16.06-16.1A16,16,0,0,1,448.34,427.92Z"/><path class="cls-71" d="M390.8,471.53c-.37-8.73,7.3-16.44,16.06-16.31a16.44,16.44,0,0,1-.87,32.87C398,487.82,390.27,480.26,390.8,471.53Z"/><path class="cls-71" d="M349.67,429a16,16,0,0,1-16,16.37,16.49,16.49,0,0,1,.21-33A16,16,0,0,1,349.67,429Z"/><path class="cls-71" d="M355.94,453.75c8.74-.3,16.12,7.35,16.09,16.48a16.33,16.33,0,0,1-16.23,16.28c-8.87-.09-15.85-7.23-15.91-16.42S347.09,453.49,355.94,453.75Z"/><path class="cls-3" d="M222.77,379.6l25,0a5.93,5.93,0,0,1,2.32.42,2.25,2.25,0,0,1,1.56,2.27c0,5.55,0,11.11,0,16.66a2.86,2.86,0,0,1-1,2.06c-.41.45-1,.39-1.52.58h0c-1.37.22-1.57.08-1.59-1.42,0-3.84,0-7.69,0-11.53a3.87,3.87,0,0,0-.29-2c-.62-1.37-1.83-1.52-3.12-1.52H225.28a4.66,4.66,0,0,1-2.33-.31A8.38,8.38,0,0,1,222.77,379.6Z"/><path class="cls-72" d="M247.77,386.32c.38.54.18,1.15.19,1.72,0,4.12,0,8.23,0,12.34,0,1,.29,1.35,1.25,1.19-.41.55-1,.32-1.5.32-3.1,0-6.2,0-9.3,0-1.27,0-2.54-.19-3.8-.29a.36.36,0,0,1,.16-.48,5.88,5.88,0,0,1,2.63-.28c2.57,0,5.14,0,7.71,0,2.06,0,2.13-.08,2.14-2.2,0-3.41,0-6.82,0-10.23C247.25,387.67,247.11,386.89,247.77,386.32Z"/><path class="cls-73" d="M222.77,379.6c0,1.66-.41,3.35.24,5a27.79,27.79,0,0,1,.12,4.74c0,3.86,0,7.72,0,11.58a.74.74,0,0,1-.46.65c-.49-.3-.32-.79-.32-1.21q0-9.72,0-19.45C222.38,380.44,222.13,379.86,222.77,379.6Z"/><path class="cls-74" d="M222.7,401.55l.27-.25a2.05,2.05,0,0,1,1.66-.47q4.16,0,8.3,0a1.94,1.94,0,0,1,1.64.51c0,.08,0,.17,0,.25Z"/><path class="cls-72" d="M249.17,401.57l1.52-.58C250.38,401.71,249.78,401.65,249.17,401.57Z"/><path class="cls-3" d="M311.18,597.46a2.71,2.71,0,0,1,1.62,2.85c-.07,5.15-.1,10.31,0,15.46,0,1.79-.59,2.8-2.22,3.32-1.61.34-1.86.18-1.88-1.41,0-3.91,0-7.83,0-11.74a3.34,3.34,0,0,0-.35-2c-.78-1.24-2-1.3-3.29-1.3-6.26,0-12.52,0-18.77,0a4.79,4.79,0,0,1-2.34-.3c-.66-1.52-.2-3.11-.27-4.67,0-.39.42-.5.78-.54s.89,0,1.34,0h22.49A7.1,7.1,0,0,1,311.18,597.46Z"/><path class="cls-13" d="M311.18,597.46c-.75-.06-1.49-.18-2.23-.18-7.89,0-15.79,0-23.68,0-1.1,0-1.56.25-1.4,1.4s-.25,2.36.21,3.51a1.9,1.9,0,0,1,.46,1.38c0,4.74,0,9.49,0,14.24a2.3,2.3,0,0,1-.14.73,1.19,1.19,0,0,1-.59.62c-.48-.38-.3-.92-.3-1.39,0-6.39,0-12.78,0-19.17,0-1.34.35-1.82,1.76-1.81,7.83.06,15.66,0,23.49,0A3.2,3.2,0,0,1,311.18,597.46Z"/><path class="cls-58" d="M308.84,603.61c.51.43.29,1,.29,1.53,0,4.2.06,8.4,0,12.6,0,1.22.36,1.59,1.48,1.35-.34.52-.88.34-1.35.35-2.62,0-5.23,0-7.85,0,0-.53.42-.55.76-.67,1.33-.15,2.66-.06,4-.08,2.11,0,2.19-.08,2.19-2.14,0-3.61,0-7.21,0-10.82C308.36,605,308.23,604.2,308.84,603.61Z"/><path class="cls-6" d="M302,619.13l-.59.28a77.28,77.28,0,0,1-9.86-.28.35.35,0,0,1,.16-.48c1.3-.52,2.65-.24,4-.28,1.58,0,3.17,0,4.75,0C301,618.41,301.76,618.25,302,619.13Z"/><path class="cls-19" d="M291.52,618.87c0,.09,0,.17,0,.26h-7.74l.32-.33c1.62-.86,3.36-.31,5.05-.42A2.73,2.73,0,0,1,291.52,618.87Z"/><path class="cls-4" d="M831.05,422c.78,3,1.54,6,2.37,9,.21.79.09,1.09-.78,1.05-1-.06-2.08-.05-3.12,0s-1.26-.47-1.1-1.18c.72-3,1.53-6,2.31-9Z"/><path class="cls-4" d="M769.94,639.76c.76,3,1.48,6,2.31,9,.25.88,0,1-.78,1s-1.68,0-2.52,0c-1.73,0-1.94-.29-1.5-2,.64-2.58,1.3-5.15,1.95-7.73C769.56,639.87,769.62,639.51,769.94,639.76Z"/><path class="cls-75" d="M769.94,639.76l-.54.23c0-.37-.12-.92.26-1S769.94,639.46,769.94,639.76Z"/><path class="cls-69" d="M358.32,400.1c-6.63-.34-12.25-4.89-12.4-12.3a12.41,12.41,0,0,1,24.81-.16C370.68,394.78,365.29,399.73,358.32,400.1Z"/><path class="cls-71" d="M234.57,401.34l-11.6,0a2.72,2.72,0,0,1-.28-1.43q0-7,0-14.05c0-.43-.09-.9.31-1.24,7.27,0,14.55,0,21.82,0,1.28,0,2.46.33,2.94,1.75,0,4.46-.12,8.93-.06,13.39,0,1.33-.37,1.67-1.67,1.64C242.22,401.27,238.39,401.33,234.57,401.34Z"/><path class="cls-71" d="M291.52,618.87l-7.41-.07,0-16.64c7.3,0,14.59,0,21.89,0a3,3,0,0,1,2.87,1.47c0,4.7,0,9.39,0,14.09,0,1.08-.25,1.5-1.4,1.44-1.83-.09-3.66,0-5.49,0-.61-.5-1.34-.26-2-.26C297.15,618.84,294.33,618.86,291.52,618.87Z"/></svg>