<svg id="Layer_1" data-name="Layer 1" xmlns="http://www.w3.org/2000/svg" viewBox="0 0 1080 1080"><defs><style>.cls-1{fill:#f2f2f2;}.cls-2,.cls-3{fill:#222;}.cls-3{fill-rule:evenodd;}</style></defs><circle class="cls-1" cx="540" cy="540" r="540"/><g id="Group_67" data-name="Group 67"><path id="Path_3" data-name="Path 3" class="cls-2" d="M617.71,490.44a48.55,48.55,0,0,1-4.46,19.18c-4.23,8.49-12.93,13.94-19.11,17.31l-.75.36c-1.35.8-2.89,1.63-4.55,2.48l20.87,51a23.7,23.7,0,0,0,7.93,10.89c.38.29.81.65,1.22,1l-18.62-45.48a2.89,2.89,0,0,1,1.48-3.7c2.38-1.13,4.68-2.34,6.91-3.65a4.16,4.16,0,0,0,.48-.22c6.81-3.7,13.5-8.35,16.73-14.83a43,43,0,0,0,3.87-16.62,33.35,33.35,0,0,0-10.05-25.77c-.15-.14-.28-.29-.44-.43s-.27-.29-.43-.43-.27-.29-.43-.43-.28-.29-.43-.43-.28-.3-.43-.44-.28-.29-.44-.43-.27-.29-.42-.43l-.11-.1a51.13,51.13,0,0,1,1.18,11.17"/><path id="Path_4" data-name="Path 4" class="cls-2" d="M552.62,493.64a2.89,2.89,0,0,1,2.71-2.9c8.67-.52,23.06-1.24,31.78-.9.56,0,1.07.07,1.64.1a13.17,13.17,0,0,0-2.73-6.75c-2.82-3.3-8.32-5.05-16.81-5.34-7.73-.33-20.29.27-28.56.73v48.94a60,60,0,0,1,12-5.39Z"/><path id="Path_5" data-name="Path 5" class="cls-2" d="M739.21,463.22l-.3-.3c-.12.37-.18.72-.33,1.09a23,23,0,0,1-6,8,37.87,37.87,0,0,0-3.34,3.6A167.66,167.66,0,0,0,716.08,500a118.16,118.16,0,0,0-7.36,34.12c-1.25,12.26,1.26,34.53,10.72,45.69a19.81,19.81,0,0,0,4.62,4,90.85,90.85,0,0,1-3.32-32.55c1.85-18.24,4.67-28.54,7.78-35.81a172.27,172.27,0,0,1,14-25.62c3.29-4.18,6.94-6.33,8.47-10.21.93-2.36.91-4.06-.54-5.17A2.91,2.91,0,0,0,750,474Z"/><path id="Path_6" data-name="Path 6" class="cls-2" d="M706.87,472.48a11.83,11.83,0,0,1,.9,1.43c.29-.48.55-.94.79-1.35-.53-.05-1.11-.07-1.69-.08"/><path id="Path_7" data-name="Path 7" class="cls-2" d="M330.61,582.75a5.81,5.81,0,0,0-.43-.43c-.15-.14-.28-.3-.43-.43s-.28-.3-.43-.44l-.19-.18c0,.47.11.91.11,1.39V591a12,12,0,0,0,2.65-7c-.14-.14-.27-.29-.41-.41s-.29-.3-.44-.44-.28-.29-.43-.43"/><path id="Path_8" data-name="Path 8" class="cls-2" d="M368.23,463.46l-.06-.06a15.46,15.46,0,0,1-3.07,4.82,12.88,12.88,0,0,0-3.68,9.69v103.3h12V495.44c.4-12.41,7.37-13.09,7.37-17.62a11.45,11.45,0,0,0-3-4.85,3.57,3.57,0,0,0-.43-.44,4.36,4.36,0,0,0-.43-.43c-.16-.13-.27-.3-.43-.43s-.27-.3-.43-.43-.27-.3-.43-.43-.27-.3-.43-.44-.28-.3-.44-.43-.27-.3-.43-.43-.27-.3-.43-.43-.27-.3-.43-.43-.27-.3-.43-.43a4.47,4.47,0,0,0-.44-.43,3.57,3.57,0,0,0-.43-.44l-1.73-1.72-1.3-1.31-.87-.87"/><path id="Path_9" data-name="Path 9" class="cls-2" d="M563.05,543.77l-1.71-4.17c-1.18.32-2.35.68-3.51,1.09a19.9,19.9,0,0,1,5.24,3.08"/><path id="Path_10" data-name="Path 10" class="cls-2" d="M952.81,463.8a15.43,15.43,0,0,1-3.09,4.72,53.3,53.3,0,0,1,11.14,16.78,1.94,1.94,0,0,1,.3-.57c1.9-2.44,4.31-4.17,4.31-6.48a4.28,4.28,0,0,0-1.75-3.55Z"/><path id="Path_11" data-name="Path 11" class="cls-2" d="M964.52,491.51c-.13-.15-.29-.28-.43-.43s-.29-.28-.43-.43l-.43-.43c-.14-.15-.3-.28-.44-.43a2.28,2.28,0,0,0-.22-.22,76.5,76.5,0,0,1,4.16,25.36c0,18.05-7.9,38.77-15.56,54.62A14.52,14.52,0,0,1,968,575.22c5.73-13.42,10.68-28.93,10.68-42.57,0-19.27-6.49-32.84-14.2-41.13"/><path id="Path_12" data-name="Path 12" class="cls-2" d="M901.07,479.65h-.26v37.11a21.81,21.81,0,0,0,2.16-1.67,12.15,12.15,0,0,1,8.11-3.63,9.94,9.94,0,0,1,1.72.18V494.56a2.89,2.89,0,0,1,2.85-2.89,90.64,90.64,0,0,1,13.68.62c-5.92-11.05-15.45-12.64-28.26-12.64"/><path id="Path_13" data-name="Path 13" class="cls-2" d="M829.24,585.05a11.15,11.15,0,0,1-.52,1.31,10.88,10.88,0,0,1-1.1,1.82,22.12,22.12,0,0,0,3.25-.35L829.23,585"/><path id="Path_14" data-name="Path 14" class="cls-2" d="M941.38,587.84a22,22,0,0,0,3.23.33,10.65,10.65,0,0,1-1.09-1.8,13.3,13.3,0,0,1-.53-1.31c-.56,1-1.1,1.92-1.61,2.78"/><path id="Path_15" data-name="Path 15" class="cls-2" d="M871.43,562l0,0V550.27a21.47,21.47,0,0,0-2.21,1.72,15.79,15.79,0,0,1-4.81,3l.06.07a6,6,0,0,0,.44.43Z"/><path id="Path_16" data-name="Path 16" class="cls-2" d="M259.12,557.6a2.9,2.9,0,0,1,2.91-2.9h8.13c7.53,0,9.28.8,12,2.24a14.7,14.7,0,0,0,7.06,2.5c3.75,0,3.67-3.66,2.2-7.58s-3-9.07-4.7-14.35a12.65,12.65,0,0,0-2.94-6.07,3.49,3.49,0,0,0-.43-.43L282,529.7a5.81,5.81,0,0,0-.43-.43l-.87-.87-1.31-1.3a2.91,2.91,0,0,0-.43-.43,3.57,3.57,0,0,0-.43-.44,4.36,4.36,0,0,0-.43-.43l-.87-.86-.86-.87-.07-.07c.94,3,1.84,5.79,2.71,8.11a12.41,12.41,0,0,1-.27,11.73,8.53,8.53,0,0,1-7.3,3.6,18.81,18.81,0,0,1-9.34-3c-2.38-1.26-3.37-1.79-9.72-1.79h-5.3v38.5h12Z"/><path id="Path_17" data-name="Path 17" class="cls-2" d="M672.07,489.85a3.7,3.7,0,0,1-.29-.29,34.17,34.17,0,0,0-.58,6.62v104c.39,12.46,7.38,13.14,7.38,17.68a4.75,4.75,0,0,1-4.84,4.66H651.07a5.46,5.46,0,0,1-3.85-1.54,3.57,3.57,0,0,1-.44-.43l-9.94-9.94-.09-.09h18.93a10.41,10.41,0,0,0,10.89-9.91c0-.15,0-.31,0-.46a11.93,11.93,0,0,0-3.68-8.12,12.75,12.75,0,0,1-3.69-9.55v-99.7c7.6,2.31,17.43-2.67,18.22-14.7l.13.13c.14.15.29.28.43.43s.3.28.43.43.3.28.43.44.3.27.44.43.29.27.43.43l.26.25a24.87,24.87,0,0,0-.36,4,9.2,9.2,0,0,0,.08,1.17,15.55,15.55,0,0,0,1.5,5.95,18.46,18.46,0,0,0,7.27,8.29,8.14,8.14,0,0,1-7.5,5.29,8,8,0,0,1-5.44-2.09,3.5,3.5,0,0,1-.38-.39Z"/><path id="Path_18" data-name="Path 18" class="cls-2" d="M319.3,480.34v.83a8.39,8.39,0,0,1-5.18,8.91c-4.26,1.75-8.61.44-12.93-3.92l-.74-.75a17.15,17.15,0,0,0-13.82-6.36H247.14v34.32h4.25a7.3,7.3,0,0,0,2.85-1.29,10.22,10.22,0,0,1,4.87-4.1V493.93A2.9,2.9,0,0,1,262,491h42.32a22.08,22.08,0,0,1,16,6.17l0,0,0,0,.1.1.29.3.07.06.36.37.07.06.36.38.08,0c.11.12.25.27.36.37l.07.06a4.25,4.25,0,0,0,.36.37l.07.07.36.37c2.88,2.89,4.88,3.41,6.68,2.67,2-.81,1.64-2,1.64-4.45a67.31,67.31,0,0,0-6.16-20.35,13.33,13.33,0,0,0-2.4-2.89c-.15-.14-.29-.3-.43-.43l-.44-.44-.43-.43c-.14-.13-.29-.3-.44-.43s-.28-.3-.42-.43-.3-.3-.44-.43-.29-.3-.43-.44-.29-.3-.43-.43-.29-.3-.43-.43l-.43-.43c-.15-.13-.3-.3-.44-.43s-.29-.3-.43-.43-.29-.31-.43-.43l-.08-.08a57.4,57.4,0,0,1,2.27,11.22"/><path id="Path_19" data-name="Path 19" class="cls-2" d="M626.27,608.11a9.93,9.93,0,0,1-3.6-6.34c-.09-.16-.16-.31-.24-.48a10.4,10.4,0,0,1-10.77,9.26H588.29a.34.34,0,0,0,.09.08,4.47,4.47,0,0,0,.43.44l9.51,9.51a4.36,4.36,0,0,0,.43.43,5.45,5.45,0,0,0,3.86,1.53h26.77a4.75,4.75,0,0,0,5.16-4.31c0-.11,0-.23,0-.34a3.69,3.69,0,0,0-1.43-2.91Z"/><path id="Path_20" data-name="Path 20" class="cls-2" d="M921.45,525.77V544.7a10.42,10.42,0,0,1-9.91,10.9h-.46a12,12,0,0,1-8.12-3.7,17.73,17.73,0,0,0-2.15-1.71v32.12a12.76,12.76,0,0,0,3.69,9.52,11.9,11.9,0,0,1,3.68,8.11,10.39,10.39,0,0,1-10.43,10.38h-19.4a.28.28,0,0,0,.09.1l10.37,10.37a5.47,5.47,0,0,0,3.86,1.52H915a4.75,4.75,0,0,0,5.16-4.3c0-.11,0-.22,0-.33,0-3.4-3.9-4.64-6-10.23a7.27,7.27,0,0,1-.81-1,10,10,0,0,1-.54-9.44V563.68a2.91,2.91,0,0,1,2.91-2.91,3.39,3.39,0,0,1,.64.07c6.3,1.51,8.11,5.13,10.72,6.31a159.43,159.43,0,0,0,6.38-25.28v-1.81a5.51,5.51,0,0,0-1.53-3.85Z"/><path id="Path_21" data-name="Path 21" class="cls-2" d="M971.84,586.77A22.53,22.53,0,0,1,958.67,607c-8.91,4.18-21.46,4.25-30.79,4.25-.61,0-1.24,0-1.85,0l.1.1,9.51,9.51a2.91,2.91,0,0,0,.43.43c1.15,1.31,3.79,2,8.63,2,8.89,0,21.21.07,29.27-3.7a16.89,16.89,0,0,0,9.91-15.81,1.86,1.86,0,0,0-.07-.52,9.67,9.67,0,0,0-.95-4.12,14.85,14.85,0,0,0-3.06-4.34Z"/><path id="Path_22" data-name="Path 22" class="cls-2" d="M828.1,615.46l.43.43a17.3,17.3,0,0,0,5.17,3.64c8.06,3.78,20.38,3.71,29.28,3.71s10.53-2.16,8.73-6.72a11.61,11.61,0,0,0-.94-1.82c-.9-1.86-2.35-4.52-4.52-8.38a10.27,10.27,0,0,1-1.54-2.74c-.08-.17-.16-.29-.26-.46-7.83-13.83-20.18-52.42-13.52-82.48a12.19,12.19,0,0,1,.33-1.48c.09-.35.14-.71.23-1,3.93-14.95,11.13-21.47,20-24.31V479.65h-.31c-15.85,0-26.68,2.42-31.86,22.17-7.37,28.08,4.66,67.06,12.42,80.74,3.41,6,5.23,9.34,6.35,11.65a16.1,16.1,0,0,1,1.25,2.49,10.11,10.11,0,0,1-.43,9.81c-2.93,4.31-8.69,4.76-14.14,4.73a117.43,117.43,0,0,1-22.39-1.52,1.31,1.31,0,0,0,.12.11,5.81,5.81,0,0,0,.43.43c.15.14.28.3.43.44Z"/><path id="Path_23" data-name="Path 23" class="cls-2" d="M518.27,610.63l-.1-.09h19a10.41,10.41,0,0,0,10.89-9.9c0-.16,0-.32,0-.47a11.94,11.94,0,0,0-3.69-8.12,12.74,12.74,0,0,1-3.68-9.51v-1.8A26.47,26.47,0,0,0,548.4,582a22.66,22.66,0,0,0,22.39-19.33l9.44,23c.06.19,0,.33.1.49A17.74,17.74,0,0,1,566.12,594a21.43,21.43,0,0,1-9.17-2.19,2.92,2.92,0,0,0-4.32,2.52v6c.4,12.42,7.38,13.09,7.38,17.63a4.76,4.76,0,0,1-4.84,4.66l-.33,0H532.5a5.45,5.45,0,0,1-3.86-1.53,4.36,4.36,0,0,1-.43-.43Z"/><path id="Path_24" data-name="Path 24" class="cls-2" d="M802.47,463.24l-.07-.06a15.38,15.38,0,0,1-3.08,4.82,13.23,13.23,0,0,0-3.71,10.6V580.93a13.56,13.56,0,0,0,3.71,10.9A11.92,11.92,0,0,1,803,600a10.4,10.4,0,0,1-10.43,10.38H774.9a8.64,8.64,0,0,1-8.41-6.71l-1.06.88a48.72,48.72,0,0,1-31.47,11,57.73,57.73,0,0,1-15.69-2l.05.06c.14.15.29.28.43.43,7.25,8.15,17.83,13.56,32.92,13.56a43.27,43.27,0,0,0,27.87-9.73,37.58,37.58,0,0,0,3.79-3.57.49.49,0,0,0,.15.1l6.91,6.91a2.84,2.84,0,0,0,2.22,1.11h17.24A4.74,4.74,0,0,0,815,618c0-.11,0-.22,0-.33,0-4.11-5.73-5-7.11-14.39A22.68,22.68,0,0,1,800.35,586l.08-1.12a15.44,15.44,0,0,1,1.5-6,19.14,19.14,0,0,1,5.66-7.14V532.19a82.88,82.88,0,0,1-2.09-17.27,79.61,79.61,0,0,1,2.09-18.13v-.47a19,19,0,0,1,5.65-15c.55-1.06,1.09-2.1,1.7-3.1a4.62,4.62,0,0,0,.07-.65,4.87,4.87,0,0,0-1.75-3.56Z"/><path id="Path_25" data-name="Path 25" class="cls-2" d="M177,538.6a26.42,26.42,0,0,1-24.38,15.79,30.66,30.66,0,0,1-4.49-.36l.26.26c.13.16.3.28.43.43s.3.28.43.44.3.27.44.43.29.27.43.43.3.28.43.43.3.28.43.43.3.28.43.44.3.27.44.43.29.27.43.43.3.28.43.43a23,23,0,0,0,17.62,7.77,21.15,21.15,0,0,0,6.51-1c.05-.58.15-1.13.15-1.71Z"/><path id="Path_26" data-name="Path 26" class="cls-2" d="M148.45,492.34c.87-.33,1.77-.68,2.53-.94a64.22,64.22,0,0,1,23.67-3.27,25.48,25.48,0,0,0-11.5-10.64c-7.46-3.32-21.14-.77-28,1.61-7.2,2.5-21.51,9-21.64,9.08l-.71.32c-.73.42-1.4.86-2.07,1.3a28.87,28.87,0,0,1-4.6,2.59h.33l41.74-.05h.25"/><path id="Path_27" data-name="Path 27" class="cls-2" d="M139.15,557.67c0-2.22,0-4.34.11-6.4a24.53,24.53,0,0,1-12.09-12.13V582.2c4.27.13,8.26.24,12,.29Z"/><path id="Path_28" data-name="Path 28" class="cls-2" d="M494.44,489.56a34.66,34.66,0,0,0-.58,6.59V600.26c.4,12.42,7.38,13.09,7.38,17.63a4.76,4.76,0,0,1-4.83,4.67l-.35,0H473.71a5.43,5.43,0,0,1-3.85-1.53,4.47,4.47,0,0,1-.44-.43l-9.5-9.51a3.49,3.49,0,0,1-.43-.43l-.1-.09h18.94a10.42,10.42,0,0,0,10.89-9.92c0-.15,0-.3,0-.46a11.94,11.94,0,0,0-3.69-8.11,12.79,12.79,0,0,1-3.69-9.51V482.81c7.58,2.31,17.43-2.68,18.22-14.7a1.42,1.42,0,0,1,.12.13l8.65,8.64c.14.15.3.28.43.43a10.3,10.3,0,0,1,2,2.88v9.51a8.21,8.21,0,0,1-7.68,5.69,8,8,0,0,1-5.43-2.09Z"/><path id="Path_29" data-name="Path 29" class="cls-2" d="M443.59,581.45l-.19-.19c0,.48.11.92.11,1.4v19.1a8.82,8.82,0,0,1-8.79,8.79H335.55a11.1,11.1,0,0,1-8.16-3.4,9,9,0,0,1-6.93,3.4H224.67l.09.09a5.81,5.81,0,0,0,.43.43l9.51,9.51.43.43a5.47,5.47,0,0,0,3.86,1.53h99.19a3.07,3.07,0,0,0,3.06-3.06v-6.63a3.5,3.5,0,0,0,.39.38l7.34,7.35a6,6,0,0,0,.44.43,5.5,5.5,0,0,0,3.85,1.53h99.19a3.07,3.07,0,0,0,3.06-3.06v-9a10.36,10.36,0,0,1-10.41-10.29v0a11.94,11.94,0,0,1,3.71-8.12,15.48,15.48,0,0,0,2.24-3.1l-.12-.15c-.15-.14-.28-.29-.43-.44Z"/><path id="Path_30" data-name="Path 30" class="cls-2" d="M122,621.43a3.27,3.27,0,0,0,2.23,1.11l5.56.22c1.11.06,18.44,1,34.47,1a169.77,169.77,0,0,0,22-1,36.24,36.24,0,0,0,25.21-18,10.4,10.4,0,0,1-1-4.49,12.11,12.11,0,0,1,3.7-8.15,13.37,13.37,0,0,0,3.72-10.58V508.34a46.9,46.9,0,0,0-13.65-25.1,37.52,37.52,0,0,1,2,11.21v69.19c0,19.91-14.07,43.54-36.83,47a170.56,170.56,0,0,1-22.82,1.09c-16.69,0-34.62-.94-34.79-1l-.45,0Z"/><path id="Path_31" data-name="Path 31" class="cls-3" d="M604.41,583l-21.9-53.5a2.88,2.88,0,0,1,1.48-3.69c2.39-1.13,4.68-2.34,6.92-3.65a3.38,3.38,0,0,0,.47-.22c6.82-3.71,13.51-8.35,16.73-14.83A42.87,42.87,0,0,0,612,490.45c0-15.12-6.12-34.75-42-36-10.15-.35-54.67,1-55.25,1a4.75,4.75,0,0,0-5.16,4.29c0,.12,0,.23,0,.35,0,4.67,7.42,5.21,7.42,18.72V581.46c0,13-7.42,14.06-7.42,18.72a4.75,4.75,0,0,0,4.83,4.66l.35,0h22.33a4.75,4.75,0,0,0,5.15-4.31c0-.12,0-.23,0-.35,0-4.53-7-5.21-7.37-17.63v-6a2.92,2.92,0,0,1,4.32-2.52,21.39,21.39,0,0,0,9.16,2.19,16.85,16.85,0,0,0,16.79-16,15.15,15.15,0,0,0-10.93-14.73,10.89,10.89,0,0,0-13.2,5.49,9.81,9.81,0,0,0,.06,7.65,7.41,7.41,0,0,0,14.68-1.46,7.29,7.29,0,0,0-.3-2,7.2,7.2,0,0,1,1.87,5,9.25,9.25,0,0,1-9,8.14,12.23,12.23,0,0,1-12.28-12.15c0-.18,0-.37,0-.55,0-11.52,13.09-18.94,24.3-21.8,1.5-.38,2.91-.77,4.31-1.16l20.94,51.14c3.08,9.49-5.94,11.82-5.94,16.27a4.73,4.73,0,0,0,4.82,4.66l.35,0h26.77a4.75,4.75,0,0,0,5.15-4.31c0-.11,0-.23,0-.34,0-4.51-6.4-3.07-12.43-17.21m-45.92-56.61a53.48,53.48,0,0,0-18.86,8.75,2.89,2.89,0,0,1-4.72-2.24V475.91a2.86,2.86,0,0,1,2.7-2.89c8.67-.52,23.06-1.25,31.78-.91,21.74.77,27.21,10.57,24.85,29.68a22.55,22.55,0,0,1-10.38,15.33,111.7,111.7,0,0,1-25.37,9.23"/><path id="Path_32" data-name="Path 32" class="cls-3" d="M480.41,455.46h-1.84l-.21,0H456a4.74,4.74,0,0,0-5.15,4.31c0,.11,0,.22,0,.34,0,4.67,7.41,5.21,7.41,18.71V581.45c0,13.51-7.41,14.06-7.41,18.72a4.74,4.74,0,0,0,4.83,4.66l.34,0h22.34a4.74,4.74,0,0,0,5.15-4.31c0-.11,0-.22,0-.33,0-4.54-7-5.21-7.37-17.63V478.42c0-5.86.91-9.11,2.29-10.78a5.58,5.58,0,0,1,7.76-1.43c.15.11.31.23.45.35h0v.11a5.41,5.41,0,0,0-2.58-.72,5.55,5.55,0,0,0-5.54,5.54,5.92,5.92,0,0,0,1.9,4.09,8,8,0,0,0,5.43,2.1c4.28,0,8.6-3.42,8.6-11,0-7.34-7.08-11.17-14.07-11.17"/><path id="Path_33" data-name="Path 33" class="cls-3" d="M657.76,455.46H655.9l-.21,0H633.33a4.76,4.76,0,0,0-5.16,4.32c0,.11,0,.22,0,.33,0,4.67,7.42,5.21,7.42,18.71V581.45c0,13.51-7.42,14.06-7.42,18.72a4.76,4.76,0,0,0,4.85,4.66l.33,0h22.34a4.74,4.74,0,0,0,5.15-4.31c0-.11,0-.22,0-.33,0-4.54-7-5.21-7.37-17.68V478.43c0-5.89.91-9.14,2.27-10.8a5.8,5.8,0,0,1,4.7-2.41,5.7,5.7,0,0,1,3.51,1.34h0v.11a5.47,5.47,0,0,0-2.58-.72,5.53,5.53,0,0,0-5.54,5.53,6,6,0,0,0,1.89,4.09,8.05,8.05,0,0,0,5.43,2.1c4.28,0,8.61-3.42,8.61-11,0-7.34-7.08-11.18-14.07-11.18"/><path id="Path_34" data-name="Path 34" class="cls-3" d="M789.89,478.6c0-13.51,7.42-14.06,7.42-18.72a4.75,4.75,0,0,0-4.83-4.66l-.35,0H769.79a4.73,4.73,0,0,0-5.15,4.3c0,.11,0,.22,0,.34,0,4.53,7,5.21,7.38,17.67V544.4a2.84,2.84,0,0,1-4,2.53,19.9,19.9,0,0,0-7.62-1.46,16.66,16.66,0,0,0-17.25,16c0,7.14,4.81,14.52,12.86,14.52a11.25,11.25,0,0,0,12-10.13h0a7.88,7.88,0,0,0,.13-1.19,7.42,7.42,0,1,0-14.24,2.92,7.34,7.34,0,0,1-2.94-6.12,8.85,8.85,0,0,1,9.44-8.16,11.22,11.22,0,0,1,11.47,10.28,20.46,20.46,0,0,1-2.44,10.17,53.44,53.44,0,0,1-11.76,11.88,40.23,40.23,0,0,1-26.24,6.45c-24.64-1.53-30.19-40.28-28.33-58.52s4.68-28.55,7.78-35.81a173.13,173.13,0,0,1,14-25.62c3.3-4.19,7-6.33,8.48-10.21,1.8-4.56.17-6.72-8.73-6.72s-21.22-.06-29.28,3.71a16.88,16.88,0,0,0-9.91,15.8,3.21,3.21,0,0,0,.07.53,9.74,9.74,0,0,0,1,4.11c3.3,6.88,8.67,8.08,12.53,6.22a8,8,0,0,0,4-4.23,6,6,0,0,0-.08-4.52,5.43,5.43,0,0,0-9.4-.82v0c-1.09-2.26,3.56-8.35,11.16-9.09,3.47-.33,14.53-.24,9.87,6.89a9.13,9.13,0,0,0-.72,1.34c-1.86,3.16-5.6,9.79-5.6,9.79-6.22,9.91-19.67,33.83-21.09,60.21s6.72,64.69,46.93,64.69a43.27,43.27,0,0,0,27.87-9.73A46.88,46.88,0,0,0,772,588v13.72a2.9,2.9,0,0,0,2.91,2.89h17.23a4.73,4.73,0,0,0,5.15-4.29c0-.12,0-.23,0-.35,0-4.67-7.42-5.21-7.42-18.72V478.58"/><path id="Path_35" data-name="Path 35" class="cls-3" d="M966.09,585.48a9.79,9.79,0,0,0-1-4.12c-3.29-6.87-8.67-8.07-12.53-6.22a8.06,8.06,0,0,0-4,4.24,5.9,5.9,0,0,0,.06,4.5,5.53,5.53,0,0,0,7.38,2.6h0a5.25,5.25,0,0,0,2-1.76l0,0c1.09,2.27-3.56,8.35-11.17,9.09-3.47.33-16-.28-11.36-7.42l0-.07c6.79-11.38,25.4-45,25.4-71.43,0-21.64-8.18-36.14-17.09-44a2.89,2.89,0,0,1-.49-3.93c1.91-2.44,4.32-4.17,4.32-6.47a4.76,4.76,0,0,0-4.84-4.66H829.67a4.76,4.76,0,0,0-5.16,4.32c0,.11,0,.22,0,.33,0,2.29,2.4,4,4.32,6.47a2.89,2.89,0,0,1-.49,3.93c-8.92,7.85-17.09,22.34-17.09,44,0,26.45,18.62,60.05,25.39,71.43l0,.07c4.66,7.14-7.9,7.76-11.37,7.42-7.6-.74-12.26-6.82-11.16-9.09v0a5.33,5.33,0,0,0,2,1.76,5.52,5.52,0,0,0,7.38-2.58h0a5.94,5.94,0,0,0,.07-4.5,8.12,8.12,0,0,0-4-4.24c-3.86-1.85-9.23-.65-12.53,6.22a9.64,9.64,0,0,0-1,4.12,1.81,1.81,0,0,0-.07.52A16.88,16.88,0,0,0,816,601.8c8,3.77,20.38,3.71,29.27,3.71s10.53-2.16,8.73-6.72A10.8,10.8,0,0,0,853,597c-1.13-2.34-3.07-5.86-6.31-11.58-8.06-14.22-20.94-54.63-13-85,6.68-25.44,22.76-26.69,40.58-26.42a2.9,2.9,0,0,1,2.86,2.89v44.25a2.93,2.93,0,0,1-2.92,2.92,3.29,3.29,0,0,1-.63-.07c-7.62-1.82-8.7-6.75-12.52-6.75a4.75,4.75,0,0,0-4.65,4.84c0,.11,0,.22,0,.34V544.7a4.77,4.77,0,0,0,4.31,5.16h.33c3.79,0,5-4.82,12.51-6.64a2.91,2.91,0,0,1,3.48,2.21,2.65,2.65,0,0,1,.08.63v35.16c0,13.51-7.42,14-7.42,18.72a4.73,4.73,0,0,0,4.83,4.66h22.68a4.75,4.75,0,0,0,5.15-4.31c0-.11,0-.23,0-.34,0-4.53-7-5.21-7.37-17.63V546a2.9,2.9,0,0,1,2.91-2.92,2.73,2.73,0,0,1,.64.07c7.57,1.83,8.65,6.74,12.43,6.74a4.76,4.76,0,0,0,4.67-4.85c0-.11,0-.22,0-.33V522.38a4.75,4.75,0,0,0-4.3-5.16h-.35c-3.77,0-5,4.79-12.43,6.62a2.91,2.91,0,0,1-3.49-2.19,3.59,3.59,0,0,1-.07-.65V476.85a2.91,2.91,0,0,1,2.86-2.9c17.8-.26,33.87,1,40.53,26.42,8,30.39-4.91,70.8-13,85-3.24,5.72-5.18,9.24-6.31,11.58a11.67,11.67,0,0,0-.95,1.82c-1.8,4.56-.17,6.72,8.73,6.72s21.22.06,29.27-3.71A16.85,16.85,0,0,0,966.16,586a2.33,2.33,0,0,0-.07-.53"/><path id="Path_36" data-name="Path 36" class="cls-3" d="M437.78,582.66c0-7-3.83-14.07-11.17-14.07-7.62,0-11,4.32-11,8.6a8,8,0,0,0,2.09,5.44,6,6,0,0,0,4.1,1.89,5.54,5.54,0,0,0,5.53-5.53h0a5.47,5.47,0,0,0-.72-2.58h.11v.05a5.59,5.59,0,0,1-.63,7.88,5.3,5.3,0,0,1-.45.34c-1.67,1.36-4.92,2.23-10.8,2.27H358.58a2.9,2.9,0,0,1-2.9-2.9V477.72c.4-12.41,7.38-13.09,7.38-17.63a4.76,4.76,0,0,0-4.84-4.67l-.34,0H335.55a4.76,4.76,0,0,0-5.16,4.32c0,.11,0,.22,0,.33,0,4.67,7.42,5.21,7.42,18.71V581.45c0,13.51-7.42,14.06-7.42,18.72a4.76,4.76,0,0,0,4.85,4.66l.33,0h99.19a3.06,3.06,0,0,0,3.06-3V584.5Z"/><path id="Path_37" data-name="Path 37" class="cls-3" d="M323.51,582.66c0-7-3.84-14.07-11.18-14.07-7.62,0-11,4.32-11,8.61a8,8,0,0,0,2.09,5.43,5.87,5.87,0,0,0,4.09,1.89A5.54,5.54,0,0,0,313,579h0a5.41,5.41,0,0,0-.72-2.58h.08l0,0a5.59,5.59,0,0,1-.63,7.88,5.3,5.3,0,0,1-.45.34c-1.67,1.36-4.92,2.23-10.79,2.27H244.31a2.9,2.9,0,0,1-2.91-2.89h0V539.87a2.9,2.9,0,0,1,2.9-2.9h8.14c7.53,0,9.28.8,12,2.24a14.7,14.7,0,0,0,7.06,2.5c3.75,0,3.68-3.66,2.2-7.58s-3-9.07-4.69-14.35-2.46-6.83-5.72-6.81a4.75,4.75,0,0,0-4.66,2.78,11.45,11.45,0,0,1-7.23,3.34h-7.09a2.9,2.9,0,0,1-2.91-2.9v-40a2.91,2.91,0,0,1,2.91-2.9h42.32a23.52,23.52,0,0,1,18.63,8.79c2.88,2.9,4.88,3.42,6.68,2.68,2-.81,1.64-2,1.64-4.45A67.14,67.14,0,0,0,307.42,460,9.75,9.75,0,0,0,299,454.8c-2-.28-6.45.6-8.95.6l0,0H221.27a4.76,4.76,0,0,0-5.16,4.32c0,.11,0,.22,0,.33,0,4.67,7.42,5.21,7.42,18.71V581.45c0,13.33-7.42,14.06-7.42,18.72a4.76,4.76,0,0,0,4.84,4.66l.34,0h99.19a3.06,3.06,0,0,0,3.05-3v-19.1Z"/><path id="Path_38" data-name="Path 38" class="cls-3" d="M172.71,456.09c-18.18-8.11-42.54-.08-45.26.86l-1.11.4-.23.07c-8.54,3.05-8.68,1.13-10.54-.76a4.85,4.85,0,0,0-5.94-1.21c-2,1-4.23,5-7.92,14.22s-8.79,18-2.93,18.28c5.67.33,8-2.94,12.29-5v0c.14-.07,14.68-6.69,22.18-9.29,6.87-2.4,22.5-5.76,32.22-1.43,12,5.38,17.22,17.3,17.22,22.19v69.19c0,11.12-8,22.47-16.88,23.81-8.1,1.22-27.71.87-41.62.38a2.87,2.87,0,0,1-2.77-2.89V540c0-10.22.3-19.08,3.4-25.18a17,17,0,0,1,15.58-9,4.27,4.27,0,0,0,.8-.1h7.15a17.1,17.1,0,0,1,18,16.15,16.64,16.64,0,0,1,0,1.73c0,12.72-7.12,17.25-13.78,17.25-5.59,0-13.89-3.1-13.89-11.64a9.42,9.42,0,0,1,9.2-9.52,5.47,5.47,0,0,1,4.82,2.12,6.55,6.55,0,0,0-9,6.24,6.78,6.78,0,0,0,5.44,6.43,11.08,11.08,0,0,0,9.07-2.57,9.69,9.69,0,0,0,3.06-7.44,12.34,12.34,0,0,0-12.05-12.63,11.64,11.64,0,0,0-1.32,0,17.13,17.13,0,0,0-17,17.24v.1c0,12.64,11.17,19.46,21.7,19.46,10.74,0,21.59-7.76,21.59-25.07,0-16.87-13.15-25.52-26-25.52l-41.75.05a2.9,2.9,0,0,0-2.9,2.9v100.9a2.89,2.89,0,0,0,2.89,2.9h0l5.56.22c1.1.06,18.44,1,34.47,1a169.76,169.76,0,0,0,22-1c19.73-3,31.95-23.77,31.95-41.32V494.45c0-10.8-8.6-29.82-27.71-38.36"/></g></svg>