<svg id="Layer_1" data-name="Layer 1" xmlns="http://www.w3.org/2000/svg" viewBox="0 0 1080 1080"><defs><style>.cls-1{fill:#f2f2f2;}.cls-2{fill:#e01f1c;}.cls-3{fill:#222;}.cls-4{fill:#f4f4f4;}.cls-5{fill:#f3f3f3;}</style></defs><circle class="cls-1" cx="540" cy="540" r="540"/><path class="cls-2" d="M540.45,546.35c-5.6-2.17-10.69-3.3-14.87-5.9-28.73-17.82-57.23-36-85.91-53.93-7.93-5-12.17-11.89-13.67-21q-9.3-56.32-18.84-112.62c-1.92-11.47,1.4-18.63,11.92-23.79,10.06-4.94,20.4-9.29,30.65-13.85,24-10.71,48.17-21.27,72.16-32.13,12.63-5.71,24.78-5.31,37.36.41,30,13.65,60.18,26.87,90.27,40.33,4.8,2.14,9.57,4.44,14.15,7,7.85,4.43,11.05,11.28,9.57,20.11q-9.48,56.81-19,113.61c-1.69,10.17-6.73,17.61-15.7,23.14-27.19,16.77-54,34.13-81.15,51C552.18,541.93,546.17,543.81,540.45,546.35Zm-1.26-31,2,.06c.53-2,1.4-4,1.52-6,1.29-21.18,2.57-42.37,3.61-63.57.72-14.62,6.59-25.92,19.26-33.85,18.13-11.35,36-23.13,53.89-34.87,2.24-1.47,7.36-2.14,5.17-6s-5.45.22-7.82,1.4c-21.28,10.6-42.42,21.48-63.66,32.15-9.16,4.61-18.4,4-27.44-.51Q498.88,390.59,472.08,377c-4.39-2.23-8.73-4.56-13.21-6.6-1-.44-2.4.17-3.62.31a21.19,21.19,0,0,0,1.25,3.83c.35.66,1.33,1,2,1.46,16.72,10.73,33.2,21.87,50.25,32,14.89,8.89,24.6,20.35,25.11,38.49.42,14.77,1.56,29.51,2.39,44.26.37,6.61.65,13.23,1.19,19.83C537.62,512.21,538.6,513.75,539.19,515.32Zm.86-132.56c6.94-2.05,13.81-3.33,20-6.11s6.18-8.87.46-12.69c-9.67-6.44-30.79-6.54-40.5-.2-6.25,4.09-6.56,9.73.11,12.87C526.24,379.51,533.15,380.72,540.05,382.76Zm28.2,70.84c.88,1.49,1.94,5.66,4.25,6.54s6.67-.59,8.89-2.47a36.76,36.76,0,0,0,13.34-27.47c.11-3.07-1.6-7.84-3.84-8.89s-7,.69-9.3,2.73C573.44,431.3,569.31,440.81,568.25,453.6Zm-28-133c-5.53,1.62-11.1,2.6-16.08,4.88-5.17,2.37-5,7.21-.35,10.3,7.54,5,24.89,4.92,32.33-.09,4.82-3.24,5-7.79-.21-10.24C551.17,323.22,545.76,322.25,540.29,320.62Zm67.15.06c-5.34,1.56-10.92,2.52-15.88,4.81-5.3,2.44-5.33,7.33-.24,10.09,10.41,5.64,21.24,5.53,31.73.3,5.65-2.82,5.58-8.08-.17-10.7C618.2,323.05,612.92,322.22,607.44,320.68Zm-135,19.72c5.28-1.37,10.31-2.25,15-4.08,2-.78,4.37-3.46,4.48-5.4s-2-4.81-3.91-5.75a33.38,33.38,0,0,0-30.83.06c-5.88,2.95-5.77,8.19.31,10.93C462.15,338.26,467.43,339,472.44,340.4Zm-11.08,98.86c1.23,11.67,5,20.36,12.85,26.79,1.72,1.41,5.2,2.61,6.77,1.79,1.88-1,3.57-4.21,3.62-6.49a32.43,32.43,0,0,0-11.73-25.88c-1.87-1.63-5.7-2.93-7.6-2.08C463.14,434.34,462.18,437.91,461.36,439.26Zm138.78,24.38c.76,1.58,1.36,4.61,3.19,6,1.27.94,4.87.33,6.37-.89,7.63-6.19,11.83-14.38,11.73-24.32,0-2-1.39-5.06-3-5.79s-4.73.18-6.4,1.43C604.62,445.59,601.94,453.76,600.14,463.64ZM539.82,289.79c-4.25,1.3-8.65,2.07-12.47,4-4.27,2.13-4.21,6,0,8.17,8.4,4.31,17.06,4.11,25.41-.13,4.18-2.12,4.19-6.16-.05-8.15C548.77,291.85,544.37,291.11,539.82,289.79Zm86.47,183.29c.57,1,1.2,3.79,2.69,4.37s4.39-.37,5.81-1.62a23.77,23.77,0,0,0,8.3-17.95c0-1.74-1.13-4.35-2.5-5s-4,.22-5.36,1.34C629.78,458.77,627,464.84,626.29,473.08Z"/><path class="cls-3" d="M929.24,781c-9.26-1.34-17.9-3.25-26.62-3.65-7.38-.35-9.82-3.72-11.49-10.39-5.58-22.23-12-44.25-17.8-66.42-1.13-4.3-3-5.67-7.54-4.17v75.58c-9.2-1-17.88-2-26.55-3-7.28-.9-7.27-1-7.27-8.54V556.81c5.72-.73,11.22-1.53,16.74-2.09,10.12-1,20.27-2.73,30.4-2.65,19,.15,33.34,9.38,40,27.14,10.75,28.77,10.6,57.93-1.75,86.39C915,671.08,911,676,907,680.62c-2.48,2.86-2.84,5.1-1.9,8.59,7.81,28.84,15.42,57.75,23.07,86.64C928.56,777.27,928.79,778.74,929.24,781ZM866,660.63c9.73.77,17.74-2.91,21.48-11.34,7.45-16.74,7.32-33.95.57-50.95-2.71-6.83-12.58-12.34-22-9.16Z"/><path class="cls-3" d="M150.76,780.39V543.27c7.27.74,14.34,1,21.21,2.22,43,7.83,67.45,32.37,74.86,77.44,4.91,29.84,5,60.14-2.53,89.64-11.78,46.31-45.56,67.78-91.17,68.34A12.2,12.2,0,0,1,150.76,780.39Zm33.92-195.12V739.55c8.19-.75,14.28-4.46,17.85-11,3.38-6.19,6.47-12.83,8-19.66,6.16-27,6-54.3,2.22-81.52-1.32-9.6-4.48-19.15-8.19-28.15C201.23,591.07,194.64,585.64,184.68,585.27Z"/><path class="cls-3" d="M654.74,660l5,2.49c16.84,8.47,25.14,21.91,24.75,41-.4,19.3-8.35,33.79-26,42.06-6.06,2.84-12.83,5.39-19.39,5.71-16.36.81-32.79.27-49.56.27V573.66c.28-.2.55-.57.83-.57,20.63-.34,41.4-3.45,61.66,3.3,16.79,5.6,27.66,16.46,29.57,34.55,2.06,19.49-4,35.52-21.59,45.91C658.45,657.77,656.9,658.71,654.74,660Zm-31.2,62.91c9.93,1.25,19.35-2.61,23.63-10.21,5-8.82,5-18.08-.41-26.65-5.17-8.27-13.52-10.67-23.22-10.57Zm.16-121.66v46.58c9.69-.33,17.86-2.9,22-11.7s4.54-18.25-1.16-26.67C639.72,602.26,631.93,601.25,623.7,601.25Z"/><path class="cls-3" d="M365.36,567.24c22,1,43.9,1.81,63.49,12.51,18.22,9.94,28.32,26.6,32.52,46.56a173.94,173.94,0,0,1,1.18,66.33c-6,34.23-26.84,55.45-60.95,61.52-10.64,1.89-21.57,2.2-32.37,3.2-2.69.25-4.46-.28-4.45-3.76q.14-92,.11-184A17.5,17.5,0,0,1,365.36,567.24Zm33.72,157.64c9.27.71,17.11-3.14,21.58-12.11,3.27-6.57,6.36-13.9,6.85-21.07,1.2-17.39,1.25-34.89.93-52.34-.19-10.19-2.4-20.26-8.06-29.12-4.87-7.63-12-11-21.3-10.64Z"/><path class="cls-3" d="M358.8,757.68l-33.66,2.59c-2.16-12.84-4.27-25.32-6.49-38.48-9.61.56-19,1-28.46,1.82-1,.09-2.36,2.57-2.61,4.09-1.72,10.56-3.33,21.13-4.65,31.75-.45,3.67-1.88,5.22-5.6,5.51-9.09.7-18.15,1.74-27.89,2.71,2.2-12.9,4.21-25.06,6.36-37.2,9.72-54.82,19.55-109.63,29.12-164.48.83-4.77,2.35-6.1,7.19-5.36,8.22,1.25,16.54,1.92,24.84,2.37,3.9.21,5.46,1.43,6.19,5.42q10.28,56.1,21,112.13c4.52,23.85,9.17,47.68,13.75,71.52C358.17,753.7,358.41,755.35,358.8,757.68Zm-65.54-67h20.43c-3.26-20.79-6.4-40.85-9.54-60.9l-1.25,0Q298.07,660.22,293.26,690.64Z"/><path class="cls-3" d="M576.69,659.39c.23,20.65-.84,41.17-8.22,60.76-5.56,14.74-14.37,26.66-30.17,31.66-23.42,7.42-44.7-3-54.61-26.54-6.64-15.75-9.11-32.34-9.75-49.23-.9-23.69-.58-47.31,7.19-70.09,4.21-12.34,10.5-23.35,22.38-29.9,22.44-12.38,48.76-3.78,60.91,19.86,9.08,17.67,11.18,36.91,12.25,56.35C576.8,654.63,576.69,657,576.69,659.39Zm-33.32,2.42-1.36-.1c0-7.81.79-15.71-.19-23.39a233.69,233.69,0,0,0-6.24-30.73c-1.24-4.64-5-8.27-10.54-8.16s-8.67,3.76-10.36,8.46A78.41,78.41,0,0,0,510.53,623a301.78,301.78,0,0,0-.48,75.67,64.61,64.61,0,0,0,6,20.81c3.93,8,13.85,7.89,18.41.13A32.89,32.89,0,0,0,539,707.32C540.76,692.19,542,677,543.37,661.81Z"/><path class="cls-3" d="M745.24,565.32l73.34-6.94v34.37l-39.39,2.81v49H814v34.07H779.16v50.44L819.6,732v34.39l-74.36-7Z"/><path class="cls-3" d="M728.27,758.16c-10.36-.68-20.35-1.26-30.31-2.14-1.09-.09-2.33-1.75-3-3-.48-.95-.12-2.33-.12-3.52V568.78l33.38-2.33Z"/><path class="cls-3" d="M378.87,414.91v8.48H271.2c-7.87,0-7.87,0-6.65-8.48Z"/><path class="cls-3" d="M703.56,413.89H809.19c7.84,0,7.84,0,6.58,8.47H703.56Z"/><path class="cls-3" d="M264.15,368.93c7.51.14,15.11-2.09,20.33,5.23,3.38,4.75,3.52,12.94.26,17.8-5.15,7.66-12.94,5.58-20.59,5.71Zm7.29,6.93v14.9c6.14-.12,8.65-2.68,8.41-8C279.62,377.82,277,375.62,271.44,375.86Z"/><path class="cls-3" d="M335.15,397.58V369c7.36,0,14.9-2.17,20.25,5,3.57,4.79,3.74,12.75.41,17.83C350.72,399.59,343,397.67,335.15,397.58Zm7.14-5.29c3.17-1.93,6.6-2.83,7.25-4.7a14.45,14.45,0,0,0-.38-9.42c-.65-1.64-4-2.2-6.87-3.58Z"/><path class="cls-3" d="M791.21,386V369.65h19.12c.08,1.66.17,3.41.27,5.46L798,376.34l.2,2c2.1.18,4.21.25,6.28.56,5.45.82,8.48,3.72,8.83,8.29.37,4.76-2.41,8.43-7.6,10-7,2.12-13.51.17-17.14-5.3,2.9-2,5.43-4.13,9.29-1.19,1.13.86,3.83,0,5.64-.56.57-.18,1.13-2.75.8-3-1.5-1.08-3.29-2.3-5-2.39C796.83,384.64,794.33,385.45,791.21,386Z"/><path class="cls-3" d="M763.92,396.52l5.15-6.72c-1.86-.62-3.78-.71-4.84-1.72-2.34-2.21-5.21-4.57-6.1-7.42-1.34-4.28,1.23-7.8,5.1-10,5-2.86,12.6-2.34,16.79,1.22,3.48,3,5,7,2.69,10.9a73.42,73.42,0,0,1-10.8,13.95c-1.42,1.45-4.95.83-7.52,1.15C764.24,397.4,764.08,397,763.92,396.52Zm13.61-16.62c-3.06-2.31-4.77-4.6-6.38-4.54s-3.22,2.43-4.83,3.79c1.34,1.46,2.56,3.93,4,4.1C772.1,383.44,774.07,381.63,777.53,379.9Z"/><path class="cls-3" d="M732.22,396.56l5.25-6.69c-1.67-.55-3.36-.63-4.29-1.51-2.46-2.32-5.6-4.64-6.61-7.6-1.42-4.19,1-7.83,5-10.07,5.05-2.89,12.53-2.46,16.79,1.08,3.5,2.92,5.06,7,2.8,10.87a72.44,72.44,0,0,1-10.74,14c-1.44,1.48-5,.93-7.52,1.3Zm13.69-16.87c-3.13-2.22-4.9-4.46-6.52-4.35s-3.09,2.56-4.63,4c1.37,1.4,2.67,3.83,4.13,3.93C740.64,383.38,742.54,381.52,745.91,379.69Z"/><path class="cls-3" d="M306.57,380.25v5.68a57.3,57.3,0,0,0-6.82.48c-.85.15-2.25,1.52-2.12,2a3.83,3.83,0,0,0,2.17,2.51,23.65,23.65,0,0,0,6.07.15c2.67-.16,4.08,1.11,3.34,3.56a5,5,0,0,1-3.3,3,65,65,0,0,1-12.16,0c-1.22-.12-3.21-1.95-3.25-3-.28-8.28-.15-16.56-.15-25.34h18v6.2a60.43,60.43,0,0,0-7.51.09c-1.18.15-2.23,1.3-3.34,2,1.16.82,2.21,2,3.5,2.35C302.56,380.35,304.31,380.14,306.57,380.25Z"/><path class="cls-3" d="M379.88,369.17c-.15,2.47-.24,4.09-.37,6.27a39.32,39.32,0,0,0-5.79.06c-1.83.28-5.08-1.5-4.81,2.29.06.84,2.88,1.64,4.52,2.16a21.21,21.21,0,0,0,4.23.41V385c-2.19,3.32-9.34-2.11-8.9,6.11h11.16v6.3h-18V369.17Z"/><path class="cls-3" d="M311,392.75l4.3-3.83a8.85,8.85,0,0,1,1.54.69c2.26,1.64,4.5,3.24,7.15.66-1.52-1.41-2.82-3.32-4.61-4.13-4.05-1.84-7.43-4.37-6.69-9,.44-2.76,2.38-6.25,4.68-7.54,4.24-2.36,8.84-1.45,12.71,2.57L327.17,376a4.3,4.3,0,0,1-.75.31c-2.24.06-4.48.1-6.73.14,2.36,1.57,4.64,3.28,7.08,4.69,4.16,2.4,5.24,6,4.36,10.41-.81,4.06-3.65,6-7.53,6.41C318.87,398.4,314.46,397.66,311,392.75Z"/><path class="cls-3" d="M705.79,375.46v-5.91h12.43V397.3h-8c0-5.41,0-10.76,0-16.1C710.14,378.2,711.23,374.38,705.79,375.46Z"/><path class="cls-4" d="M539.19,515.32c-.59-1.57-1.57-3.11-1.71-4.72-.54-6.6-.82-13.22-1.19-19.83-.83-14.75-2-29.49-2.39-44.26-.51-18.14-10.22-29.6-25.11-38.49-17.05-10.18-33.53-21.32-50.25-32-.71-.45-1.69-.8-2-1.46a21.19,21.19,0,0,1-1.25-3.83c1.22-.14,2.66-.75,3.62-.31,4.48,2,8.82,4.37,13.21,6.6q26.82,13.59,53.63,27.18c9,4.56,18.28,5.12,27.44.51,21.24-10.67,42.38-21.55,63.66-32.15,2.37-1.18,5.67-5.17,7.82-1.4s-2.93,4.49-5.17,6c-17.89,11.74-35.76,23.52-53.89,34.87-12.67,7.93-18.54,19.23-19.26,33.85-1,21.2-2.32,42.39-3.61,63.57-.12,2-1,4-1.52,6Z"/><path class="cls-5" d="M540.05,382.76c-6.9-2-13.81-3.25-19.93-6.13-6.67-3.14-6.36-8.78-.11-12.87,9.71-6.34,30.83-6.24,40.5.2,5.72,3.82,5.85,9.84-.46,12.69S547,380.71,540.05,382.76Z"/><path class="cls-5" d="M568.25,453.6c1.06-12.79,5.19-22.3,13.34-29.56,2.3-2,7-3.78,9.3-2.73s4,5.82,3.84,8.89a36.76,36.76,0,0,1-13.34,27.47c-2.22,1.88-6.52,3.37-8.89,2.47S569.13,455.09,568.25,453.6Z"/><path class="cls-5" d="M540.29,320.62c5.47,1.63,10.88,2.6,15.69,4.85,5.22,2.45,5,7,.21,10.24-7.44,5-24.79,5.06-32.33.09-4.69-3.09-4.82-7.93.35-10.3C529.19,323.22,534.76,322.24,540.29,320.62Z"/><path class="cls-5" d="M607.44,320.68c5.48,1.54,10.76,2.37,15.44,4.5,5.75,2.62,5.82,7.88.17,10.7-10.49,5.23-21.32,5.34-31.73-.3-5.09-2.76-5.06-7.65.24-10.09C596.52,323.2,602.1,322.24,607.44,320.68Z"/><path class="cls-5" d="M472.44,340.4c-5-1.37-10.29-2.14-15-4.24-6.08-2.74-6.19-8-.31-10.93a33.38,33.38,0,0,1,30.83-.06c1.9.94,4,3.87,3.91,5.75s-2.48,4.62-4.48,5.4C482.75,338.15,477.72,339,472.44,340.4Z"/><path class="cls-5" d="M461.36,439.26c.82-1.35,1.78-4.92,3.91-5.87,1.9-.85,5.73.45,7.6,2.08a32.43,32.43,0,0,1,11.73,25.88c-.05,2.28-1.74,5.51-3.62,6.49-1.57.82-5.05-.38-6.77-1.79C466.34,459.62,462.59,450.93,461.36,439.26Z"/><path class="cls-5" d="M600.14,463.64c1.8-9.88,4.48-18.05,11.9-23.6,1.67-1.25,4.79-2.18,6.4-1.43s3,3.76,3,5.79c.1,9.94-4.1,18.13-11.73,24.32-1.5,1.22-5.1,1.83-6.37.89C601.5,468.25,600.9,465.22,600.14,463.64Z"/><path class="cls-5" d="M539.82,289.79c4.55,1.32,8.95,2.06,12.85,3.88,4.24,2,4.23,6,.05,8.15-8.35,4.24-17,4.44-25.41.13-4.17-2.14-4.23-6,0-8.17C531.17,291.86,535.57,291.09,539.82,289.79Z"/><path class="cls-5" d="M626.29,473.08c.7-8.24,3.49-14.31,8.94-18.88,1.33-1.12,4.06-2,5.36-1.34s2.53,3.28,2.5,5a23.77,23.77,0,0,1-8.3,17.95c-1.42,1.25-4.28,2.22-5.81,1.62S626.86,474.1,626.29,473.08Z"/></svg>