<svg id="Layer_1" data-name="Layer 1" xmlns="http://www.w3.org/2000/svg" viewBox="0 0 1080 1080"><defs><style>.cls-1{fill:#f2f2f2;}.cls-2{fill:#fff;}.cls-2,.cls-3,.cls-4{fill-rule:evenodd;}.cls-4{fill:#e3cb8d;}</style></defs><circle class="cls-1" cx="540" cy="540" r="540"/><path class="cls-2" d="M129.86,609.33v-38h23.76a1.56,1.56,0,0,0,2.18-.54c.82-1.36,0-68.82,0-68.82l-25.67-22.67V440.54H324.86l19.38,50.26L332,525.75l-38.24,18L274.6,570.55l-10.38,30.58-4.36,19.12-130-10.92Zm214.67,4.9-30-6V570.55H332c4.38-1.09,7.65-2.19,10.92-8.74s45.9-121.27,45.9-121.27h72.64l63.91,126.18,3.82,1.63a23.59,23.59,0,0,0,6.55,0c2.73-.55,36.59-41,36.59-41l-25.66-32.77-34.41-17.48V440H712.66l7.1,21.83-7.1,32.77-28.94,47,14.74,23.5,9.28,3.27H746c4.36,0,2.72-7.1,2.72-9.83V503.91l-27.31-25.12V440H914.21L934.42,463,918,618.06l-573.5-3.83Z"/><path class="cls-3" d="M950.14,546,939,546.5c3,3.62,7.42,6.89,11.18,10.33V640H349.21c-12-10.49-23.6-20.86-35.07-31.67H913.72v-79.6h-42V515.3h42.36V440l36,31.13V546Z"/><path class="cls-3" d="M721.43,447.36V477l26.7-.09V508H723.65l-3.95,2.46-30.14,34.9c5.73,7.87,12.29,15.57,18.51,23.28a40.48,40.48,0,0,1-10,.32l-4.59-2.3-40.64-50.3.66-1.47,32.77-36.06,3.45-1.8h22.36V440l9.34,7.36ZM497.67,473.11,531,569.37H508c-2-.33-3.43-2.71-4.25-4.35L461.63,440l.16.32,34.74,30.81,1.14,2ZM361.1,509.31l-15,38.1H313.59v39.82h-22V640H165.37L130,608.33H254.67V570.19H228.78l-1.31-1.73V541.92c2.78-.65,5.09-.16,7.87,0l1,1.64v13.19H282V516H325V440l36.14,32.27v37Z"/><path class="cls-4" d="M906,507.84H872.11c-1.48-13.6,3.6-31.3-11.31-37.51l-4.92-.59H809.39v39.57c8.19,0,19,2.46,23.72-5.23a19.16,19.16,0,0,0,1.14-8.12h29.49v51.87H834.25c-.65-4.43,1-9.18-2.12-12.8-6.23-3.76-22.74-1.79-22.74-1.79v43h42.72c7-1,14.26-4.18,17.54-10.91,2.92-9,1.83-18.69,2-28.91h34.25v63.82H609.76V577H627.3a4.49,4.49,0,0,0,2.13-4.88L607.8,544.54l-25.4,28.52a4,4,0,0,0,3.11,3.9h14.75v23.29H417.39V577.4h22.45c1.47-.83,3.6-2.38,3.92-4.18-1-7.54-3.92-15.07-6.72-22.13h-49l-8,20.82a5,5,0,0,0,3.45,5.49H408v23.34H321.53V577.8c8.52,0,17.52.66,23.1-5.89l4.58-9.84L393,446.91h62L497,570.59c1.79,2.63,4.09,5.82,7.38,6.48h29.15a25.28,25.28,0,0,0,13.11-7.78l36.06-41.95-40.48-51.13c-4.74-8.2-14.58-5.41-22.77-6.07l.1-23.22h97.23v22.89l-14.9.51a2.77,2.77,0,0,0-.67,2.94l19.17,23.27,21.13-22.77a2.78,2.78,0,0,0,0-2.79l-1.8-1h-13.1V446.92h77.5v22.89c-7.87.41-15.9-1.63-21.79,2.31L643,516.36,688.74,574c2.14,2.13,4.92,2.54,7.87,2.71h54.56c4.93-.12,5.09-1.77,5.28-4.62V474.9c-.11-2.94-2.17-3.68-3.8-4.83H729.71V446.92H906v60.92Zm-589.33-.16H282.36s.37-24.06-2-28.19c-3.43-5.4-9.17-7.29-14.9-8.28-15.91-.16-46.9,0-46.9,0V511h19.69c3.61-1.79,6.72-5.48,6.23-9.75v-5.89h28.67V549.7H244.84c-1.16-5.4,2.13-13.83-5.25-15.49h-21v38.84c.65,2,2.33,4.18,4.3,4.67h23.27v23.5H137V578.28l21.81-.32a7.27,7.27,0,0,0,4.9-4.09V477c-.1-8.24-12.77-5.4-19.65-5.88-6.67-.17-7.06,0-7.06,0V446.92H316.69Z"/><path class="cls-3" d="M627,477.2c-2,2.45-3.61,5.41-6.39,6.89L615,477.2Zm227.94.16c3,.49,6.22,1.15,7.69,4.27l1.15,5.65H826.06l-.5,12c-1.63,2.62-5.24,1.81-8,1.81V477.36Zm-323.31.16c9.35,9.51,17.54,20.48,26,31h-11.3c-11.48-10.16-23.27-20.48-34.42-31Zm-262,2.46c2.62,1.32,3.43,4.27,3.76,6.88H236.73v15.4c-.4,2.26-9.31,1.49-9.31,1.49V478.59s36.1.05,37.41,0a11.69,11.69,0,0,1,4.75,1.39Zm-113.72,1c.08,1.13,0,21.31,0,21.31-8.68-7-17.54-15.4-25.9-22.94h24.43C155.33,479.33,155.77,479.84,155.86,481Z"/><path class="cls-2" d="M428.2,527.34H397.55l15.9-42.28q7.8,21,14.75,42.28Z"/><path class="cls-3" d="M417.22,519.89H408L412.89,506Zm408.34,22.2v13.26h38.18a13,13,0,0,1-6.87,11.81c-9.29,2.56-39.41,1.81-39.41,1.81V540.13c2.77.49,6.79-1,8.1,2ZM616.15,569h-20l10.48-12.47Zm-183.21-1.49a2.79,2.79,0,0,1-1.14,2.14h-40c-2-1.16-.33-3.12-.17-4.6,1.15-2.12,1.2-4.44,2.84-6.36l35.19,0,3.26,8.84Z"/></svg>